<?xml version="1.0" encoding="UTF-8" standalone="no"?><svg xmlns="http://www.w3.org/2000/svg" xmlns:xlink="http://www.w3.org/1999/xlink" contentScriptType="application/ecmascript" contentStyleType="text/css" height="1117px" preserveAspectRatio="none" style="width:2910px;height:1117px;" version="1.1" viewBox="0 0 2910 1117" width="2910px" zoomAndPan="magnify"><defs><filter height="300%" id="fej7et7" width="300%" x="-1" y="-1"><feGaussianBlur result="blurOut" stdDeviation="2.0"/><feColorMatrix in="blurOut" result="blurOut2" type="matrix" values="0 0 0 0 0 0 0 0 0 0 0 0 0 0 0 0 0 0 .4 0"/><feOffset dx="4.0" dy="4.0" in="blurOut2" result="blurOut3"/><feBlend in="SourceGraphic" in2="blurOut3" mode="normal"/></filter></defs><g><!--cluster game_objects--><polygon fill="#FFFFFF" filter="url(#fej7et7)" points="675.5,213,771.5,213,778.5,237.9287,1461.5,237.9287,1461.5,775.5,675.5,775.5,675.5,213" style="stroke: #000000; stroke-width: 2.0;"/><line style="stroke: #000000; stroke-width: 2.0;" x1="675.5" x2="778.5" y1="237.9287" y2="237.9287"/><text fill="#000000" font-family="sans-serif" font-size="14" font-weight="bold" lengthAdjust="spacingAndGlyphs" textLength="90" x="679.5" y="230.0801">game_objects</text><!--cluster items--><polygon fill="#FFFFFF" filter="url(#fej7et7)" points="1485.5,637,1527.5,637,1534.5,661.9287,2439.5,661.9287,2439.5,1110,1485.5,1110,1485.5,637" style="stroke: #000000; stroke-width: 2.0;"/><line style="stroke: #000000; stroke-width: 2.0;" x1="1485.5" x2="1534.5" y1="661.9287" y2="661.9287"/><text fill="#000000" font-family="sans-serif" font-size="14" font-weight="bold" lengthAdjust="spacingAndGlyphs" textLength="36" x="1489.5" y="654.0801">items</text><!--cluster skills--><polygon fill="#FFFFFF" filter="url(#fej7et7)" points="2463.5,652,2503.5,652,2510.5,676.9287,2903.5,676.9287,2903.5,928,2463.5,928,2463.5,652" style="stroke: #000000; stroke-width: 2.0;"/><line style="stroke: #000000; stroke-width: 2.0;" x1="2463.5" x2="2510.5" y1="676.9287" y2="676.9287"/><text fill="#000000" font-family="sans-serif" font-size="14" font-weight="bold" lengthAdjust="spacingAndGlyphs" textLength="34" x="2467.5" y="669.0801">skills</text><!--class GameObject--><rect fill="#FEFECE" filter="url(#fej7et7)" height="152.1079" style="stroke: #A80036; stroke-width: 1.5;" width="274" x="1161.5" y="250"/><ellipse cx="1262.25" cy="266" fill="#ADD1B2" rx="11" ry="11" style="stroke: #A80036; stroke-width: 1.0;"/><path d="M1262.0469,272.5 Q1260.8125,272.5 1259.8594,272.0859 Q1258.9063,271.6719 1258.2344,270.8281 Q1256.9219,269.1563 1256.9219,266 Q1256.9219,262.8438 1258.2344,261.1719 Q1258.9063,260.3281 1259.8594,259.9141 Q1260.8125,259.5 1262.0469,259.5 Q1262.4219,259.5 1262.7578,259.5391 Q1263.0938,259.5781 1263.4219,259.6406 Q1264.0781,259.7969 1264.625,260.0781 L1264.625,262.8438 Q1264.2656,262.4375 1263.9688,262.2188 Q1263.6719,262 1263.4063,261.8594 Q1263.0938,261.7031 1262.7891,261.6328 Q1262.4844,261.5625 1262.1719,261.5625 Q1260.8438,261.5625 1260.1563,262.6719 Q1259.4688,263.8125 1259.4688,266 Q1259.4688,268.2031 1260.1563,269.3125 Q1260.8438,270.4375 1262.1719,270.4375 Q1262.8125,270.4375 1263.4063,270.1563 Q1263.7031,270.0156 1263.9922,269.8125 Q1264.2813,269.6094 1264.625,269.2656 L1264.625,271.9688 Q1264.0469,272.2344 1263.4063,272.3594 Q1263.0938,272.4375 1262.7578,272.4688 Q1262.4219,272.5 1262.0469,272.5 Z "/><text fill="#000000" font-family="sans-serif" font-size="12" lengthAdjust="spacingAndGlyphs" textLength="64" x="1282.75" y="270.8135">GameObject</text><line style="stroke: #A80036; stroke-width: 1.5;" x1="1162.5" x2="1434.5" y1="282" y2="282"/><ellipse cx="1172.5" cy="294.9363" fill="none" rx="3" ry="3" style="stroke: #038048; stroke-width: 1.0;"/><text fill="#000000" font-family="sans-serif" font-size="11" lengthAdjust="spacingAndGlyphs" textLength="60" x="1181.5" y="297.8486">String name</text><ellipse cx="1172.5" cy="309.8088" fill="none" rx="3" ry="3" style="stroke: #038048; stroke-width: 1.0;"/><text fill="#000000" font-family="sans-serif" font-size="11" lengthAdjust="spacingAndGlyphs" textLength="21" x="1181.5" y="312.7212">int x</text><ellipse cx="1172.5" cy="324.6814" fill="none" rx="3" ry="3" style="stroke: #038048; stroke-width: 1.0;"/><text fill="#000000" font-family="sans-serif" font-size="11" lengthAdjust="spacingAndGlyphs" textLength="22" x="1181.5" y="327.5938">int y</text><ellipse cx="1172.5" cy="339.554" fill="none" rx="3" ry="3" style="stroke: #038048; stroke-width: 1.0;"/><text fill="#000000" font-family="sans-serif" font-size="11" lengthAdjust="spacingAndGlyphs" textLength="59" x="1181.5" y="342.4663">int hitpoints</text><ellipse cx="1172.5" cy="354.4265" fill="none" rx="3" ry="3" style="stroke: #038048; stroke-width: 1.0;"/><text fill="#000000" font-family="sans-serif" font-size="11" lengthAdjust="spacingAndGlyphs" textLength="71" x="1181.5" y="357.3389">boolean intact</text><line style="stroke: #A80036; stroke-width: 1.5;" x1="1162.5" x2="1434.5" y1="364.3628" y2="364.3628"/><ellipse cx="1172.5" cy="377.2991" fill="#84BE84" rx="3" ry="3" style="stroke: #038048; stroke-width: 1.0;"/><text fill="#000000" font-family="sans-serif" font-size="11" lengthAdjust="spacingAndGlyphs" textLength="248" x="1181.5" y="380.2114">GameObject(String name, int hitpoints, int x, int y)</text><ellipse cx="1172.5" cy="392.1716" fill="#84BE84" rx="3" ry="3" style="stroke: #038048; stroke-width: 1.0;"/><text fill="#000000" font-family="sans-serif" font-size="11" lengthAdjust="spacingAndGlyphs" textLength="112" x="1181.5" y="395.084">void hit(Attack attack)</text><!--class Mob--><rect fill="#FEFECE" filter="url(#fej7et7)" height="122.3628" style="stroke: #A80036; stroke-width: 1.5;" width="235" x="1181" y="492"/><ellipse cx="1282.75" cy="508" fill="#A9DCDF" rx="11" ry="11" style="stroke: #A80036; stroke-width: 1.0;"/><path d="M1281.375,500.75 L1284.3594,500.75 L1287.7188,513.75 L1285.2656,513.75 L1284.5,510.75 L1281.2188,510.75 L1280.4688,513.75 L1278.0313,513.75 L1281.375,500.75 Z M1284.0313,508.625 L1282.8594,503.2031 L1281.7031,508.625 L1284.0313,508.625 Z "/><text fill="#000000" font-family="sans-serif" font-size="12" font-style="italic" lengthAdjust="spacingAndGlyphs" textLength="23" x="1303.25" y="512.8135">Mob</text><line style="stroke: #A80036; stroke-width: 1.5;" x1="1182" x2="1415" y1="524" y2="524"/><ellipse cx="1192" cy="536.9363" fill="none" rx="3" ry="3" style="stroke: #038048; stroke-width: 1.0;"/><text fill="#000000" font-family="sans-serif" font-size="11" lengthAdjust="spacingAndGlyphs" textLength="133" x="1201" y="539.8486">ArrayList&lt;Item&gt; inventory</text><ellipse cx="1192" cy="551.8088" fill="none" rx="3" ry="3" style="stroke: #038048; stroke-width: 1.0;"/><text fill="#000000" font-family="sans-serif" font-size="11" lengthAdjust="spacingAndGlyphs" textLength="111" x="1201" y="554.7212">ArrayList&lt;Skill&gt; skills</text><line style="stroke: #A80036; stroke-width: 1.5;" x1="1182" x2="1415" y1="561.7451" y2="561.7451"/><ellipse cx="1192" cy="574.6814" fill="#84BE84" rx="3" ry="3" style="stroke: #038048; stroke-width: 1.0;"/><text fill="#000000" font-family="sans-serif" font-size="11" lengthAdjust="spacingAndGlyphs" textLength="209" x="1201" y="577.5938">Mob(String name, int hitpoints, int x, int y)</text><ellipse cx="1192" cy="589.554" fill="#84BE84" rx="3" ry="3" style="stroke: #038048; stroke-width: 1.0;"/><text fill="#000000" font-family="sans-serif" font-size="11" lengthAdjust="spacingAndGlyphs" textLength="164" x="1201" y="592.4663">void move(Level level, int x, int y)</text><ellipse cx="1192" cy="604.4265" fill="#84BE84" rx="3" ry="3" style="stroke: #038048; stroke-width: 1.0;"/><text fill="#000000" font-family="sans-serif" font-size="11" lengthAdjust="spacingAndGlyphs" textLength="112" x="1201" y="607.3389">void hit(Attack attack)</text><!--class Player--><rect fill="#FEFECE" filter="url(#fej7et7)" height="77.7451" style="stroke: #A80036; stroke-width: 1.5;" width="405" x="692" y="681.5"/><ellipse cx="873.75" cy="697.5" fill="#ADD1B2" rx="11" ry="11" style="stroke: #A80036; stroke-width: 1.0;"/><path d="M873.5469,704 Q872.3125,704 871.3594,703.5859 Q870.4063,703.1719 869.7344,702.3281 Q868.4219,700.6563 868.4219,697.5 Q868.4219,694.3438 869.7344,692.6719 Q870.4063,691.8281 871.3594,691.4141 Q872.3125,691 873.5469,691 Q873.9219,691 874.2578,691.0391 Q874.5938,691.0781 874.9219,691.1406 Q875.5781,691.2969 876.125,691.5781 L876.125,694.3438 Q875.7656,693.9375 875.4688,693.7188 Q875.1719,693.5 874.9063,693.3594 Q874.5938,693.2031 874.2891,693.1328 Q873.9844,693.0625 873.6719,693.0625 Q872.3438,693.0625 871.6563,694.1719 Q870.9688,695.3125 870.9688,697.5 Q870.9688,699.7031 871.6563,700.8125 Q872.3438,701.9375 873.6719,701.9375 Q874.3125,701.9375 874.9063,701.6563 Q875.2031,701.5156 875.4922,701.3125 Q875.7813,701.1094 876.125,700.7656 L876.125,703.4688 Q875.5469,703.7344 874.9063,703.8594 Q874.5938,703.9375 874.2578,703.9688 Q873.9219,704 873.5469,704 Z "/><text fill="#000000" font-family="sans-serif" font-size="12" lengthAdjust="spacingAndGlyphs" textLength="33" x="894.25" y="702.3135">Player</text><line style="stroke: #A80036; stroke-width: 1.5;" x1="693" x2="1096" y1="713.5" y2="713.5"/><line style="stroke: #A80036; stroke-width: 1.5;" x1="693" x2="1096" y1="721.5" y2="721.5"/><ellipse cx="703" cy="734.4363" fill="#84BE84" rx="3" ry="3" style="stroke: #038048; stroke-width: 1.0;"/><text fill="#000000" font-family="sans-serif" font-size="11" lengthAdjust="spacingAndGlyphs" textLength="219" x="712" y="737.3486">Player(String name, int hitpoints, int x, int y)</text><ellipse cx="703" cy="749.3088" fill="#84BE84" rx="3" ry="3" style="stroke: #038048; stroke-width: 1.0;"/><text fill="#000000" font-family="sans-serif" font-size="11" lengthAdjust="spacingAndGlyphs" textLength="379" x="712" y="752.2212">boolean useWeapon(Level level, String weapon, int directionX, int directionY)</text><!--class NonPlayerCharacter--><rect fill="#FEFECE" filter="url(#fej7et7)" height="77.7451" style="stroke: #A80036; stroke-width: 1.5;" width="313" x="1132" y="681.5"/><ellipse cx="1230.25" cy="697.5" fill="#ADD1B2" rx="11" ry="11" style="stroke: #A80036; stroke-width: 1.0;"/><path d="M1230.0469,704 Q1228.8125,704 1227.8594,703.5859 Q1226.9063,703.1719 1226.2344,702.3281 Q1224.9219,700.6563 1224.9219,697.5 Q1224.9219,694.3438 1226.2344,692.6719 Q1226.9063,691.8281 1227.8594,691.4141 Q1228.8125,691 1230.0469,691 Q1230.4219,691 1230.7578,691.0391 Q1231.0938,691.0781 1231.4219,691.1406 Q1232.0781,691.2969 1232.625,691.5781 L1232.625,694.3438 Q1232.2656,693.9375 1231.9688,693.7188 Q1231.6719,693.5 1231.4063,693.3594 Q1231.0938,693.2031 1230.7891,693.1328 Q1230.4844,693.0625 1230.1719,693.0625 Q1228.8438,693.0625 1228.1563,694.1719 Q1227.4688,695.3125 1227.4688,697.5 Q1227.4688,699.7031 1228.1563,700.8125 Q1228.8438,701.9375 1230.1719,701.9375 Q1230.8125,701.9375 1231.4063,701.6563 Q1231.7031,701.5156 1231.9922,701.3125 Q1232.2813,701.1094 1232.625,700.7656 L1232.625,703.4688 Q1232.0469,703.7344 1231.4063,703.8594 Q1231.0938,703.9375 1230.7578,703.9688 Q1230.4219,704 1230.0469,704 Z "/><text fill="#000000" font-family="sans-serif" font-size="12" lengthAdjust="spacingAndGlyphs" textLength="108" x="1250.75" y="702.3135">NonPlayerCharacter</text><line style="stroke: #A80036; stroke-width: 1.5;" x1="1133" x2="1444" y1="713.5" y2="713.5"/><line style="stroke: #A80036; stroke-width: 1.5;" x1="1133" x2="1444" y1="721.5" y2="721.5"/><ellipse cx="1143" cy="734.4363" fill="#84BE84" rx="3" ry="3" style="stroke: #038048; stroke-width: 1.0;"/><text fill="#000000" font-family="sans-serif" font-size="11" lengthAdjust="spacingAndGlyphs" textLength="287" x="1152" y="737.3486">NonPlayerCharacter(String name, int hitpoints, int x, int y)</text><ellipse cx="1143" cy="749.3088" fill="#84BE84" rx="3" ry="3" style="stroke: #038048; stroke-width: 1.0;"/><text fill="#000000" font-family="sans-serif" font-size="11" lengthAdjust="spacingAndGlyphs" textLength="65" x="1152" y="752.2212">void update()</text><!--class Weapon--><rect fill="#FEFECE" filter="url(#fej7et7)" height="107.4902" style="stroke: #A80036; stroke-width: 1.5;" width="385" x="1614" y="827"/><ellipse cx="1780.25" cy="843" fill="#A9DCDF" rx="11" ry="11" style="stroke: #A80036; stroke-width: 1.0;"/><path d="M1778.875,835.75 L1781.8594,835.75 L1785.2188,848.75 L1782.7656,848.75 L1782,845.75 L1778.7188,845.75 L1777.9688,848.75 L1775.5313,848.75 L1778.875,835.75 Z M1781.5313,843.625 L1780.3594,838.2031 L1779.2031,843.625 L1781.5313,843.625 Z "/><text fill="#000000" font-family="sans-serif" font-size="12" font-style="italic" lengthAdjust="spacingAndGlyphs" textLength="44" x="1800.75" y="847.8135">Weapon</text><line style="stroke: #A80036; stroke-width: 1.5;" x1="1615" x2="1998" y1="859" y2="859"/><ellipse cx="1625" cy="871.9363" fill="none" rx="3" ry="3" style="stroke: #038048; stroke-width: 1.0;"/><text fill="#000000" font-family="sans-serif" font-size="11" lengthAdjust="spacingAndGlyphs" textLength="130" x="1634" y="874.8486">DamageType damageType</text><ellipse cx="1625" cy="886.8088" fill="none" rx="3" ry="3" style="stroke: #038048; stroke-width: 1.0;"/><text fill="#000000" font-family="sans-serif" font-size="11" lengthAdjust="spacingAndGlyphs" textLength="55" x="1634" y="889.7212">int damage</text><line style="stroke: #A80036; stroke-width: 1.5;" x1="1615" x2="1998" y1="896.7451" y2="896.7451"/><ellipse cx="1625" cy="909.6814" fill="#84BE84" rx="3" ry="3" style="stroke: #038048; stroke-width: 1.0;"/><text fill="#000000" font-family="sans-serif" font-size="11" lengthAdjust="spacingAndGlyphs" textLength="359" x="1634" y="912.5938">Weapon(String name, int weight, DamageType damageType, int damage)</text><ellipse cx="1625" cy="924.554" fill="#84BE84" rx="3" ry="3" style="stroke: #038048; stroke-width: 1.0;"/><text fill="#000000" font-family="sans-serif" font-size="11" lengthAdjust="spacingAndGlyphs" textLength="314" x="1634" y="927.4663">void attack(Level level, int directionX, int directionY, int x, int y)</text><!--class Item--><rect fill="#FEFECE" filter="url(#fej7et7)" height="92.6177" style="stroke: #A80036; stroke-width: 1.5;" width="172" x="1720.5" y="674"/><ellipse cx="1790.25" cy="690" fill="#A9DCDF" rx="11" ry="11" style="stroke: #A80036; stroke-width: 1.0;"/><path d="M1788.875,682.75 L1791.8594,682.75 L1795.2188,695.75 L1792.7656,695.75 L1792,692.75 L1788.7188,692.75 L1787.9688,695.75 L1785.5313,695.75 L1788.875,682.75 Z M1791.5313,690.625 L1790.3594,685.2031 L1789.2031,690.625 L1791.5313,690.625 Z "/><text fill="#000000" font-family="sans-serif" font-size="12" font-style="italic" lengthAdjust="spacingAndGlyphs" textLength="24" x="1810.75" y="694.8135">Item</text><line style="stroke: #A80036; stroke-width: 1.5;" x1="1721.5" x2="1891.5" y1="706" y2="706"/><ellipse cx="1731.5" cy="718.9363" fill="none" rx="3" ry="3" style="stroke: #038048; stroke-width: 1.0;"/><text fill="#000000" font-family="sans-serif" font-size="11" lengthAdjust="spacingAndGlyphs" textLength="60" x="1740.5" y="721.8486">String name</text><ellipse cx="1731.5" cy="733.8088" fill="none" rx="3" ry="3" style="stroke: #038048; stroke-width: 1.0;"/><text fill="#000000" font-family="sans-serif" font-size="11" lengthAdjust="spacingAndGlyphs" textLength="49" x="1740.5" y="736.7212">int weight</text><line style="stroke: #A80036; stroke-width: 1.5;" x1="1721.5" x2="1891.5" y1="743.7451" y2="743.7451"/><ellipse cx="1731.5" cy="756.6814" fill="#84BE84" rx="3" ry="3" style="stroke: #038048; stroke-width: 1.0;"/><text fill="#000000" font-family="sans-serif" font-size="11" lengthAdjust="spacingAndGlyphs" textLength="146" x="1740.5" y="759.5938">Item(String name, int weight)</text><!--class Armor--><rect fill="#FEFECE" filter="url(#fej7et7)" height="77.7451" style="stroke: #A80036; stroke-width: 1.5;" width="290" x="2034.5" y="841.5"/><ellipse cx="2157.75" cy="857.5" fill="#ADD1B2" rx="11" ry="11" style="stroke: #A80036; stroke-width: 1.0;"/><path d="M2157.5469,864 Q2156.3125,864 2155.3594,863.5859 Q2154.4063,863.1719 2153.7344,862.3281 Q2152.4219,860.6563 2152.4219,857.5 Q2152.4219,854.3438 2153.7344,852.6719 Q2154.4063,851.8281 2155.3594,851.4141 Q2156.3125,851 2157.5469,851 Q2157.9219,851 2158.2578,851.0391 Q2158.5938,851.0781 2158.9219,851.1406 Q2159.5781,851.2969 2160.125,851.5781 L2160.125,854.3438 Q2159.7656,853.9375 2159.4688,853.7188 Q2159.1719,853.5 2158.9063,853.3594 Q2158.5938,853.2031 2158.2891,853.1328 Q2157.9844,853.0625 2157.6719,853.0625 Q2156.3438,853.0625 2155.6563,854.1719 Q2154.9688,855.3125 2154.9688,857.5 Q2154.9688,859.7031 2155.6563,860.8125 Q2156.3438,861.9375 2157.6719,861.9375 Q2158.3125,861.9375 2158.9063,861.6563 Q2159.2031,861.5156 2159.4922,861.3125 Q2159.7813,861.1094 2160.125,860.7656 L2160.125,863.4688 Q2159.5469,863.7344 2158.9063,863.8594 Q2158.5938,863.9375 2158.2578,863.9688 Q2157.9219,864 2157.5469,864 Z "/><text fill="#000000" font-family="sans-serif" font-size="12" lengthAdjust="spacingAndGlyphs" textLength="35" x="2178.25" y="862.3135">Armor</text><line style="stroke: #A80036; stroke-width: 1.5;" x1="2035.5" x2="2323.5" y1="873.5" y2="873.5"/><ellipse cx="2045.5" cy="886.4363" fill="none" rx="3" ry="3" style="stroke: #038048; stroke-width: 1.0;"/><text fill="#000000" font-family="sans-serif" font-size="11" lengthAdjust="spacingAndGlyphs" textLength="264" x="2054.5" y="889.3486">HashMap&lt;DamageType, Integer&gt; damageReductions</text><line style="stroke: #A80036; stroke-width: 1.5;" x1="2035.5" x2="2323.5" y1="896.3726" y2="896.3726"/><ellipse cx="2045.5" cy="909.3088" fill="#84BE84" rx="3" ry="3" style="stroke: #038048; stroke-width: 1.0;"/><text fill="#000000" font-family="sans-serif" font-size="11" lengthAdjust="spacingAndGlyphs" textLength="153" x="2054.5" y="912.2212">Armor(String name, int weight)</text><!--class MeleeWeapon--><rect fill="#FEFECE" filter="url(#fej7et7)" height="77.7451" style="stroke: #A80036; stroke-width: 1.5;" width="415" x="1501" y="1008.5"/><ellipse cx="1667.75" cy="1024.5" fill="#ADD1B2" rx="11" ry="11" style="stroke: #A80036; stroke-width: 1.0;"/><path d="M1667.5469,1031 Q1666.3125,1031 1665.3594,1030.5859 Q1664.4063,1030.1719 1663.7344,1029.3281 Q1662.4219,1027.6563 1662.4219,1024.5 Q1662.4219,1021.3438 1663.7344,1019.6719 Q1664.4063,1018.8281 1665.3594,1018.4141 Q1666.3125,1018 1667.5469,1018 Q1667.9219,1018 1668.2578,1018.0391 Q1668.5938,1018.0781 1668.9219,1018.1406 Q1669.5781,1018.2969 1670.125,1018.5781 L1670.125,1021.3438 Q1669.7656,1020.9375 1669.4688,1020.7188 Q1669.1719,1020.5 1668.9063,1020.3594 Q1668.5938,1020.2031 1668.2891,1020.1328 Q1667.9844,1020.0625 1667.6719,1020.0625 Q1666.3438,1020.0625 1665.6563,1021.1719 Q1664.9688,1022.3125 1664.9688,1024.5 Q1664.9688,1026.7031 1665.6563,1027.8125 Q1666.3438,1028.9375 1667.6719,1028.9375 Q1668.3125,1028.9375 1668.9063,1028.6563 Q1669.2031,1028.5156 1669.4922,1028.3125 Q1669.7813,1028.1094 1670.125,1027.7656 L1670.125,1030.4688 Q1669.5469,1030.7344 1668.9063,1030.8594 Q1668.5938,1030.9375 1668.2578,1030.9688 Q1667.9219,1031 1667.5469,1031 Z "/><text fill="#000000" font-family="sans-serif" font-size="12" lengthAdjust="spacingAndGlyphs" textLength="73" x="1688.25" y="1029.3135">MeleeWeapon</text><line style="stroke: #A80036; stroke-width: 1.5;" x1="1502" x2="1915" y1="1040.5" y2="1040.5"/><line style="stroke: #A80036; stroke-width: 1.5;" x1="1502" x2="1915" y1="1048.5" y2="1048.5"/><ellipse cx="1512" cy="1061.4363" fill="#84BE84" rx="3" ry="3" style="stroke: #038048; stroke-width: 1.0;"/><text fill="#000000" font-family="sans-serif" font-size="11" lengthAdjust="spacingAndGlyphs" textLength="389" x="1521" y="1064.3486">MeleeWeapon(String name, int weight, DamageType damageType, int damage)</text><ellipse cx="1512" cy="1076.3088" fill="#84BE84" rx="3" ry="3" style="stroke: #038048; stroke-width: 1.0;"/><text fill="#000000" font-family="sans-serif" font-size="11" lengthAdjust="spacingAndGlyphs" textLength="314" x="1521" y="1079.2212">void attack(Level level, int directionX, int directionY, int x, int y)</text><!--class RangedWeapon--><rect fill="#FEFECE" filter="url(#fej7et7)" height="92.6177" style="stroke: #A80036; stroke-width: 1.5;" width="472" x="1951.5" y="1001"/><ellipse cx="2141.75" cy="1017" fill="#ADD1B2" rx="11" ry="11" style="stroke: #A80036; stroke-width: 1.0;"/><path d="M2141.5469,1023.5 Q2140.3125,1023.5 2139.3594,1023.0859 Q2138.4063,1022.6719 2137.7344,1021.8281 Q2136.4219,1020.1563 2136.4219,1017 Q2136.4219,1013.8438 2137.7344,1012.1719 Q2138.4063,1011.3281 2139.3594,1010.9141 Q2140.3125,1010.5 2141.5469,1010.5 Q2141.9219,1010.5 2142.2578,1010.5391 Q2142.5938,1010.5781 2142.9219,1010.6406 Q2143.5781,1010.7969 2144.125,1011.0781 L2144.125,1013.8438 Q2143.7656,1013.4375 2143.4688,1013.2188 Q2143.1719,1013 2142.9063,1012.8594 Q2142.5938,1012.7031 2142.2891,1012.6328 Q2141.9844,1012.5625 2141.6719,1012.5625 Q2140.3438,1012.5625 2139.6563,1013.6719 Q2138.9688,1014.8125 2138.9688,1017 Q2138.9688,1019.2031 2139.6563,1020.3125 Q2140.3438,1021.4375 2141.6719,1021.4375 Q2142.3125,1021.4375 2142.9063,1021.1563 Q2143.2031,1021.0156 2143.4922,1020.8125 Q2143.7813,1020.6094 2144.125,1020.2656 L2144.125,1022.9688 Q2143.5469,1023.2344 2142.9063,1023.3594 Q2142.5938,1023.4375 2142.2578,1023.4688 Q2141.9219,1023.5 2141.5469,1023.5 Z "/><text fill="#000000" font-family="sans-serif" font-size="12" lengthAdjust="spacingAndGlyphs" textLength="83" x="2162.25" y="1021.8135">RangedWeapon</text><line style="stroke: #A80036; stroke-width: 1.5;" x1="1952.5" x2="2422.5" y1="1033" y2="1033"/><ellipse cx="1962.5" cy="1045.9363" fill="none" rx="3" ry="3" style="stroke: #038048; stroke-width: 1.0;"/><text fill="#000000" font-family="sans-serif" font-size="11" lengthAdjust="spacingAndGlyphs" textLength="44" x="1971.5" y="1048.8486">int range</text><line style="stroke: #A80036; stroke-width: 1.5;" x1="1952.5" x2="2422.5" y1="1055.8726" y2="1055.8726"/><ellipse cx="1962.5" cy="1068.8088" fill="#84BE84" rx="3" ry="3" style="stroke: #038048; stroke-width: 1.0;"/><text fill="#000000" font-family="sans-serif" font-size="11" lengthAdjust="spacingAndGlyphs" textLength="446" x="1971.5" y="1071.7212">RangedWeapon(String name, int weight, DamageType damageType, int damage, int range)</text><ellipse cx="1962.5" cy="1083.6814" fill="#84BE84" rx="3" ry="3" style="stroke: #038048; stroke-width: 1.0;"/><text fill="#000000" font-family="sans-serif" font-size="11" lengthAdjust="spacingAndGlyphs" textLength="314" x="1971.5" y="1086.5938">void attack(Level level, int directionX, int directionY, int x, int y)</text><!--class Skill--><rect fill="#FEFECE" filter="url(#fej7et7)" height="62.8726" style="stroke: #A80036; stroke-width: 1.5;" width="187" x="2479" y="689"/><ellipse cx="2557.25" cy="705" fill="#B4A7E5" rx="11" ry="11" style="stroke: #A80036; stroke-width: 1.0;"/><path d="M2553.6719,709.4375 L2556.1406,709.4375 L2556.1406,700.5625 L2553.6719,700.5625 L2553.6719,698.5 L2561.0625,698.5 L2561.0625,700.5625 L2558.5938,700.5625 L2558.5938,709.4375 L2561.0625,709.4375 L2561.0625,711.5 L2553.6719,711.5 L2553.6719,709.4375 Z "/><text fill="#000000" font-family="sans-serif" font-size="12" font-style="italic" lengthAdjust="spacingAndGlyphs" textLength="22" x="2577.75" y="709.8135">Skill</text><line style="stroke: #A80036; stroke-width: 1.5;" x1="2480" x2="2665" y1="721" y2="721"/><line style="stroke: #A80036; stroke-width: 1.5;" x1="2480" x2="2665" y1="729" y2="729"/><ellipse cx="2490" cy="741.9363" fill="#84BE84" rx="3" ry="3" style="stroke: #038048; stroke-width: 1.0;"/><text fill="#000000" font-family="sans-serif" font-size="11" lengthAdjust="spacingAndGlyphs" textLength="161" x="2499" y="744.8486">void use(Mob mob, String[] args)</text><!--class Walk--><rect fill="#FEFECE" filter="url(#fej7et7)" height="62.8726" style="stroke: #A80036; stroke-width: 1.5;" width="187" x="2479" y="849"/><ellipse cx="2555.75" cy="865" fill="#ADD1B2" rx="11" ry="11" style="stroke: #A80036; stroke-width: 1.0;"/><path d="M2555.5469,871.5 Q2554.3125,871.5 2553.3594,871.0859 Q2552.4063,870.6719 2551.7344,869.8281 Q2550.4219,868.1563 2550.4219,865 Q2550.4219,861.8438 2551.7344,860.1719 Q2552.4063,859.3281 2553.3594,858.9141 Q2554.3125,858.5 2555.5469,858.5 Q2555.9219,858.5 2556.2578,858.5391 Q2556.5938,858.5781 2556.9219,858.6406 Q2557.5781,858.7969 2558.125,859.0781 L2558.125,861.8438 Q2557.7656,861.4375 2557.4688,861.2188 Q2557.1719,861 2556.9063,860.8594 Q2556.5938,860.7031 2556.2891,860.6328 Q2555.9844,860.5625 2555.6719,860.5625 Q2554.3438,860.5625 2553.6563,861.6719 Q2552.9688,862.8125 2552.9688,865 Q2552.9688,867.2031 2553.6563,868.3125 Q2554.3438,869.4375 2555.6719,869.4375 Q2556.3125,869.4375 2556.9063,869.1563 Q2557.2031,869.0156 2557.4922,868.8125 Q2557.7813,868.6094 2558.125,868.2656 L2558.125,870.9688 Q2557.5469,871.2344 2556.9063,871.3594 Q2556.5938,871.4375 2556.2578,871.4688 Q2555.9219,871.5 2555.5469,871.5 Z "/><text fill="#000000" font-family="sans-serif" font-size="12" lengthAdjust="spacingAndGlyphs" textLength="25" x="2576.25" y="869.8135">Walk</text><line style="stroke: #A80036; stroke-width: 1.5;" x1="2480" x2="2665" y1="881" y2="881"/><line style="stroke: #A80036; stroke-width: 1.5;" x1="2480" x2="2665" y1="889" y2="889"/><ellipse cx="2490" cy="901.9363" fill="#84BE84" rx="3" ry="3" style="stroke: #038048; stroke-width: 1.0;"/><text fill="#000000" font-family="sans-serif" font-size="11" lengthAdjust="spacingAndGlyphs" textLength="161" x="2499" y="904.8486">void use(Mob mob, String[] args)</text><!--class WeaponAttack--><rect fill="#FEFECE" filter="url(#fej7et7)" height="62.8726" style="stroke: #A80036; stroke-width: 1.5;" width="187" x="2701" y="849"/><ellipse cx="2751.75" cy="865" fill="#ADD1B2" rx="11" ry="11" style="stroke: #A80036; stroke-width: 1.0;"/><path d="M2751.5469,871.5 Q2750.3125,871.5 2749.3594,871.0859 Q2748.4063,870.6719 2747.7344,869.8281 Q2746.4219,868.1563 2746.4219,865 Q2746.4219,861.8438 2747.7344,860.1719 Q2748.4063,859.3281 2749.3594,858.9141 Q2750.3125,858.5 2751.5469,858.5 Q2751.9219,858.5 2752.2578,858.5391 Q2752.5938,858.5781 2752.9219,858.6406 Q2753.5781,858.7969 2754.125,859.0781 L2754.125,861.8438 Q2753.7656,861.4375 2753.4688,861.2188 Q2753.1719,861 2752.9063,860.8594 Q2752.5938,860.7031 2752.2891,860.6328 Q2751.9844,860.5625 2751.6719,860.5625 Q2750.3438,860.5625 2749.6563,861.6719 Q2748.9688,862.8125 2748.9688,865 Q2748.9688,867.2031 2749.6563,868.3125 Q2750.3438,869.4375 2751.6719,869.4375 Q2752.3125,869.4375 2752.9063,869.1563 Q2753.2031,869.0156 2753.4922,868.8125 Q2753.7813,868.6094 2754.125,868.2656 L2754.125,870.9688 Q2753.5469,871.2344 2752.9063,871.3594 Q2752.5938,871.4375 2752.2578,871.4688 Q2751.9219,871.5 2751.5469,871.5 Z "/><text fill="#000000" font-family="sans-serif" font-size="12" lengthAdjust="spacingAndGlyphs" textLength="77" x="2772.25" y="869.8135">WeaponAttack</text><line style="stroke: #A80036; stroke-width: 1.5;" x1="2702" x2="2887" y1="881" y2="881"/><line style="stroke: #A80036; stroke-width: 1.5;" x1="2702" x2="2887" y1="889" y2="889"/><ellipse cx="2712" cy="901.9363" fill="#84BE84" rx="3" ry="3" style="stroke: #038048; stroke-width: 1.0;"/><text fill="#000000" font-family="sans-serif" font-size="11" lengthAdjust="spacingAndGlyphs" textLength="161" x="2721" y="904.8486">void use(Mob mob, String[] args)</text><!--class Main--><rect fill="#FEFECE" filter="url(#fej7et7)" height="77.7451" style="stroke: #A80036; stroke-width: 1.5;" width="255" x="6" y="45"/><ellipse cx="116.75" cy="61" fill="#ADD1B2" rx="11" ry="11" style="stroke: #A80036; stroke-width: 1.0;"/><path d="M116.5469,67.5 Q115.3125,67.5 114.3594,67.0859 Q113.4063,66.6719 112.7344,65.8281 Q111.4219,64.1563 111.4219,61 Q111.4219,57.8438 112.7344,56.1719 Q113.4063,55.3281 114.3594,54.9141 Q115.3125,54.5 116.5469,54.5 Q116.9219,54.5 117.2578,54.5391 Q117.5938,54.5781 117.9219,54.6406 Q118.5781,54.7969 119.125,55.0781 L119.125,57.8438 Q118.7656,57.4375 118.4688,57.2188 Q118.1719,57 117.9063,56.8594 Q117.5938,56.7031 117.2891,56.6328 Q116.9844,56.5625 116.6719,56.5625 Q115.3438,56.5625 114.6563,57.6719 Q113.9688,58.8125 113.9688,61 Q113.9688,63.2031 114.6563,64.3125 Q115.3438,65.4375 116.6719,65.4375 Q117.3125,65.4375 117.9063,65.1563 Q118.2031,65.0156 118.4922,64.8125 Q118.7813,64.6094 119.125,64.2656 L119.125,66.9688 Q118.5469,67.2344 117.9063,67.3594 Q117.5938,67.4375 117.2578,67.4688 Q116.9219,67.5 116.5469,67.5 Z "/><text fill="#000000" font-family="sans-serif" font-size="12" lengthAdjust="spacingAndGlyphs" textLength="25" x="137.25" y="65.8135">Main</text><line style="stroke: #A80036; stroke-width: 1.5;" x1="7" x2="260" y1="77" y2="77"/><line style="stroke: #A80036; stroke-width: 1.5;" x1="7" x2="260" y1="85" y2="85"/><ellipse cx="17" cy="97.9363" fill="#84BE84" rx="3" ry="3" style="stroke: #038048; stroke-width: 1.0;"/><text fill="#000000" font-family="sans-serif" font-size="11" lengthAdjust="spacingAndGlyphs" text-decoration="underline" textLength="117" x="26" y="100.8486">void main(String[] args)</text><line style="stroke: #000000; stroke-width: 1.0;" x1="26" x2="143" y1="102.8486" y2="102.8486"/><ellipse cx="17" cy="112.8088" fill="#84BE84" rx="3" ry="3" style="stroke: #038048; stroke-width: 1.0;"/><text fill="#000000" font-family="sans-serif" font-size="11" lengthAdjust="spacingAndGlyphs" text-decoration="underline" textLength="229" x="26" y="115.7212">String getArticle(String word, boolean capital)</text><line style="stroke: #000000; stroke-width: 1.0;" x1="26" x2="255" y1="117.7212" y2="117.7212"/><!--class UserInterface--><rect fill="#FEFECE" filter="url(#fej7et7)" height="137.2354" style="stroke: #A80036; stroke-width: 1.5;" width="481" x="296" y="15.5"/><ellipse cx="495.25" cy="31.5" fill="#ADD1B2" rx="11" ry="11" style="stroke: #A80036; stroke-width: 1.0;"/><path d="M495.0469,38 Q493.8125,38 492.8594,37.5859 Q491.9063,37.1719 491.2344,36.3281 Q489.9219,34.6563 489.9219,31.5 Q489.9219,28.3438 491.2344,26.6719 Q491.9063,25.8281 492.8594,25.4141 Q493.8125,25 495.0469,25 Q495.4219,25 495.7578,25.0391 Q496.0938,25.0781 496.4219,25.1406 Q497.0781,25.2969 497.625,25.5781 L497.625,28.3438 Q497.2656,27.9375 496.9688,27.7188 Q496.6719,27.5 496.4063,27.3594 Q496.0938,27.2031 495.7891,27.1328 Q495.4844,27.0625 495.1719,27.0625 Q493.8438,27.0625 493.1563,28.1719 Q492.4688,29.3125 492.4688,31.5 Q492.4688,33.7031 493.1563,34.8125 Q493.8438,35.9375 495.1719,35.9375 Q495.8125,35.9375 496.4063,35.6563 Q496.7031,35.5156 496.9922,35.3125 Q497.2813,35.1094 497.625,34.7656 L497.625,37.4688 Q497.0469,37.7344 496.4063,37.8594 Q496.0938,37.9375 495.7578,37.9688 Q495.4219,38 495.0469,38 Z "/><text fill="#000000" font-family="sans-serif" font-size="12" lengthAdjust="spacingAndGlyphs" textLength="74" x="515.75" y="36.3135">UserInterface</text><line style="stroke: #A80036; stroke-width: 1.5;" x1="297" x2="776" y1="47.5" y2="47.5"/><rect fill="none" height="6" style="stroke: #C82930; stroke-width: 1.0;" width="6" x="304" y="57.4363"/><text fill="#000000" font-family="sans-serif" font-size="11" lengthAdjust="spacingAndGlyphs" textLength="58" x="316" y="63.3486">Game game</text><rect fill="none" height="6" style="stroke: #C82930; stroke-width: 1.0;" width="6" x="304" y="72.3088"/><text fill="#000000" font-family="sans-serif" font-size="11" lengthAdjust="spacingAndGlyphs" textLength="83" x="316" y="78.2212">Scanner scanner</text><line style="stroke: #A80036; stroke-width: 1.5;" x1="297" x2="776" y1="85.2451" y2="85.2451"/><ellipse cx="307" cy="98.1814" fill="#84BE84" rx="3" ry="3" style="stroke: #038048; stroke-width: 1.0;"/><text fill="#000000" font-family="sans-serif" font-size="11" lengthAdjust="spacingAndGlyphs" textLength="134" x="316" y="101.0938">UserInterface(Game game)</text><ellipse cx="307" cy="113.054" fill="#84BE84" rx="3" ry="3" style="stroke: #038048; stroke-width: 1.0;"/><text fill="#000000" font-family="sans-serif" font-size="11" lengthAdjust="spacingAndGlyphs" textLength="47" x="316" y="115.9663">void run()</text><rect fill="#F24D5C" height="6" style="stroke: #C82930; stroke-width: 1.0;" width="6" x="304" y="124.9265"/><text fill="#000000" font-family="sans-serif" font-size="11" lengthAdjust="spacingAndGlyphs" textLength="250" x="316" y="130.8389">void printView(GameObject gameObject, int range)</text><rect fill="#F24D5C" height="6" style="stroke: #C82930; stroke-width: 1.0;" width="6" x="304" y="139.7991"/><text fill="#000000" font-family="sans-serif" font-size="11" lengthAdjust="spacingAndGlyphs" textLength="455" x="316" y="145.7114">void lightRay(HashSet&lt;GameObject&gt; visibleObjects, int posX, int posY, int x, int y, int range)</text><!--class Level--><rect fill="#FEFECE" filter="url(#fej7et7)" height="77.7451" style="stroke: #A80036; stroke-width: 1.5;" width="214" x="1191.5" y="45"/><ellipse cx="1280.75" cy="61" fill="#ADD1B2" rx="11" ry="11" style="stroke: #A80036; stroke-width: 1.0;"/><path d="M1280.5469,67.5 Q1279.3125,67.5 1278.3594,67.0859 Q1277.4063,66.6719 1276.7344,65.8281 Q1275.4219,64.1563 1275.4219,61 Q1275.4219,57.8438 1276.7344,56.1719 Q1277.4063,55.3281 1278.3594,54.9141 Q1279.3125,54.5 1280.5469,54.5 Q1280.9219,54.5 1281.2578,54.5391 Q1281.5938,54.5781 1281.9219,54.6406 Q1282.5781,54.7969 1283.125,55.0781 L1283.125,57.8438 Q1282.7656,57.4375 1282.4688,57.2188 Q1282.1719,57 1281.9063,56.8594 Q1281.5938,56.7031 1281.2891,56.6328 Q1280.9844,56.5625 1280.6719,56.5625 Q1279.3438,56.5625 1278.6563,57.6719 Q1277.9688,58.8125 1277.9688,61 Q1277.9688,63.2031 1278.6563,64.3125 Q1279.3438,65.4375 1280.6719,65.4375 Q1281.3125,65.4375 1281.9063,65.1563 Q1282.2031,65.0156 1282.4922,64.8125 Q1282.7813,64.6094 1283.125,64.2656 L1283.125,66.9688 Q1282.5469,67.2344 1281.9063,67.3594 Q1281.5938,67.4375 1281.2578,67.4688 Q1280.9219,67.5 1280.5469,67.5 Z "/><text fill="#000000" font-family="sans-serif" font-size="12" lengthAdjust="spacingAndGlyphs" textLength="27" x="1301.25" y="65.8135">Level</text><line style="stroke: #A80036; stroke-width: 1.5;" x1="1192.5" x2="1404.5" y1="77" y2="77"/><ellipse cx="1202.5" cy="89.9363" fill="none" rx="3" ry="3" style="stroke: #038048; stroke-width: 1.0;"/><text fill="#000000" font-family="sans-serif" font-size="11" lengthAdjust="spacingAndGlyphs" textLength="188" x="1211.5" y="92.8486">ArrayList&lt;GameObject&gt; gameObjects</text><line style="stroke: #A80036; stroke-width: 1.5;" x1="1192.5" x2="1404.5" y1="99.8726" y2="99.8726"/><ellipse cx="1202.5" cy="112.8088" fill="#84BE84" rx="3" ry="3" style="stroke: #038048; stroke-width: 1.0;"/><text fill="#000000" font-family="sans-serif" font-size="11" lengthAdjust="spacingAndGlyphs" textLength="34" x="1211.5" y="115.7212">Level()</text><!--class Game--><rect fill="#FEFECE" filter="url(#fej7et7)" height="152.1079" style="stroke: #A80036; stroke-width: 1.5;" width="345" x="812" y="8"/><ellipse cx="965.25" cy="24" fill="#ADD1B2" rx="11" ry="11" style="stroke: #A80036; stroke-width: 1.0;"/><path d="M965.0469,30.5 Q963.8125,30.5 962.8594,30.0859 Q961.9063,29.6719 961.2344,28.8281 Q959.9219,27.1563 959.9219,24 Q959.9219,20.8438 961.2344,19.1719 Q961.9063,18.3281 962.8594,17.9141 Q963.8125,17.5 965.0469,17.5 Q965.4219,17.5 965.7578,17.5391 Q966.0938,17.5781 966.4219,17.6406 Q967.0781,17.7969 967.625,18.0781 L967.625,20.8438 Q967.2656,20.4375 966.9688,20.2188 Q966.6719,20 966.4063,19.8594 Q966.0938,19.7031 965.7891,19.6328 Q965.4844,19.5625 965.1719,19.5625 Q963.8438,19.5625 963.1563,20.6719 Q962.4688,21.8125 962.4688,24 Q962.4688,26.2031 963.1563,27.3125 Q963.8438,28.4375 965.1719,28.4375 Q965.8125,28.4375 966.4063,28.1563 Q966.7031,28.0156 966.9922,27.8125 Q967.2813,27.6094 967.625,27.2656 L967.625,29.9688 Q967.0469,30.2344 966.4063,30.3594 Q966.0938,30.4375 965.7578,30.4688 Q965.4219,30.5 965.0469,30.5 Z "/><text fill="#000000" font-family="sans-serif" font-size="12" lengthAdjust="spacingAndGlyphs" textLength="30" x="985.75" y="28.8135">Game</text><line style="stroke: #A80036; stroke-width: 1.5;" x1="813" x2="1156" y1="40" y2="40"/><ellipse cx="823" cy="52.9363" fill="none" rx="3" ry="3" style="stroke: #038048; stroke-width: 1.0;"/><text fill="#000000" font-family="sans-serif" font-size="11" lengthAdjust="spacingAndGlyphs" textLength="118" x="832" y="55.8486">ArrayList&lt;Level&gt; levels</text><ellipse cx="823" cy="67.8088" fill="none" rx="3" ry="3" style="stroke: #038048; stroke-width: 1.0;"/><text fill="#000000" font-family="sans-serif" font-size="11" lengthAdjust="spacingAndGlyphs" textLength="91" x="832" y="70.7212">Level currentLevel</text><ellipse cx="823" cy="82.6814" fill="none" rx="3" ry="3" style="stroke: #038048; stroke-width: 1.0;"/><text fill="#000000" font-family="sans-serif" font-size="11" lengthAdjust="spacingAndGlyphs" textLength="88" x="832" y="85.5938">String description</text><ellipse cx="823" cy="97.554" fill="none" rx="3" ry="3" style="stroke: #038048; stroke-width: 1.0;"/><text fill="#000000" font-family="sans-serif" font-size="11" lengthAdjust="spacingAndGlyphs" textLength="65" x="832" y="100.4663">Player player</text><ellipse cx="823" cy="112.4265" fill="none" rx="3" ry="3" style="stroke: #038048; stroke-width: 1.0;"/><text fill="#000000" font-family="sans-serif" font-size="11" lengthAdjust="spacingAndGlyphs" textLength="137" x="832" y="115.3389">UserInterface userInterface</text><line style="stroke: #A80036; stroke-width: 1.5;" x1="813" x2="1156" y1="122.3628" y2="122.3628"/><ellipse cx="823" cy="135.2991" fill="#84BE84" rx="3" ry="3" style="stroke: #038048; stroke-width: 1.0;"/><text fill="#000000" font-family="sans-serif" font-size="11" lengthAdjust="spacingAndGlyphs" textLength="319" x="832" y="138.2114">Game(Player player, ArrayList&lt;Level&gt; levels, String description)</text><ellipse cx="823" cy="150.1716" fill="#84BE84" rx="3" ry="3" style="stroke: #038048; stroke-width: 1.0;"/><text fill="#000000" font-family="sans-serif" font-size="11" lengthAdjust="spacingAndGlyphs" textLength="58" x="832" y="153.084">void game()</text><!--class FileLoader--><rect fill="#FEFECE" filter="url(#fej7et7)" height="211.5981" style="stroke: #A80036; stroke-width: 1.5;" width="249" x="9" y="220"/><ellipse cx="101.25" cy="236" fill="#ADD1B2" rx="11" ry="11" style="stroke: #A80036; stroke-width: 1.0;"/><path d="M101.0469,242.5 Q99.8125,242.5 98.8594,242.0859 Q97.9063,241.6719 97.2344,240.8281 Q95.9219,239.1563 95.9219,236 Q95.9219,232.8438 97.2344,231.1719 Q97.9063,230.3281 98.8594,229.9141 Q99.8125,229.5 101.0469,229.5 Q101.4219,229.5 101.7578,229.5391 Q102.0938,229.5781 102.4219,229.6406 Q103.0781,229.7969 103.625,230.0781 L103.625,232.8438 Q103.2656,232.4375 102.9688,232.2188 Q102.6719,232 102.4063,231.8594 Q102.0938,231.7031 101.7891,231.6328 Q101.4844,231.5625 101.1719,231.5625 Q99.8438,231.5625 99.1563,232.6719 Q98.4688,233.8125 98.4688,236 Q98.4688,238.2031 99.1563,239.3125 Q99.8438,240.4375 101.1719,240.4375 Q101.8125,240.4375 102.4063,240.1563 Q102.7031,240.0156 102.9922,239.8125 Q103.2813,239.6094 103.625,239.2656 L103.625,241.9688 Q103.0469,242.2344 102.4063,242.3594 Q102.0938,242.4375 101.7578,242.4688 Q101.4219,242.5 101.0469,242.5 Z "/><text fill="#000000" font-family="sans-serif" font-size="12" lengthAdjust="spacingAndGlyphs" textLength="56" x="121.75" y="240.8135">FileLoader</text><line style="stroke: #A80036; stroke-width: 1.5;" x1="10" x2="257" y1="252" y2="252"/><ellipse cx="20" cy="264.9363" fill="none" rx="3" ry="3" style="stroke: #038048; stroke-width: 1.0;"/><text fill="#000000" font-family="sans-serif" font-size="11" lengthAdjust="spacingAndGlyphs" text-decoration="underline" textLength="71" x="29" y="267.8486">String PLAYER</text><line style="stroke: #000000; stroke-width: 1.0;" x1="29" x2="100" y1="269.8486" y2="269.8486"/><ellipse cx="20" cy="279.8088" fill="none" rx="3" ry="3" style="stroke: #038048; stroke-width: 1.0;"/><text fill="#000000" font-family="sans-serif" font-size="11" lengthAdjust="spacingAndGlyphs" text-decoration="underline" textLength="121" x="29" y="282.7212">String MELEE_WEAPONS</text><line style="stroke: #000000; stroke-width: 1.0;" x1="29" x2="150" y1="284.7212" y2="284.7212"/><ellipse cx="20" cy="294.6814" fill="none" rx="3" ry="3" style="stroke: #038048; stroke-width: 1.0;"/><text fill="#000000" font-family="sans-serif" font-size="11" lengthAdjust="spacingAndGlyphs" text-decoration="underline" textLength="129" x="29" y="297.5938">String RANGED_WEAPONS</text><line style="stroke: #000000; stroke-width: 1.0;" x1="29" x2="158" y1="299.5938" y2="299.5938"/><ellipse cx="20" cy="309.554" fill="none" rx="3" ry="3" style="stroke: #038048; stroke-width: 1.0;"/><text fill="#000000" font-family="sans-serif" font-size="11" lengthAdjust="spacingAndGlyphs" text-decoration="underline" textLength="101" x="29" y="312.4663">String DESCRIPTION</text><line style="stroke: #000000; stroke-width: 1.0;" x1="29" x2="130" y1="314.4663" y2="314.4663"/><ellipse cx="20" cy="324.4265" fill="none" rx="3" ry="3" style="stroke: #038048; stroke-width: 1.0;"/><text fill="#000000" font-family="sans-serif" font-size="11" lengthAdjust="spacingAndGlyphs" text-decoration="underline" textLength="71" x="29" y="327.3389">String LEVELS</text><line style="stroke: #000000; stroke-width: 1.0;" x1="29" x2="100" y1="329.3389" y2="329.3389"/><line style="stroke: #A80036; stroke-width: 1.5;" x1="10" x2="257" y1="334.3628" y2="334.3628"/><ellipse cx="20" cy="347.2991" fill="#84BE84" rx="3" ry="3" style="stroke: #038048; stroke-width: 1.0;"/><text fill="#000000" font-family="sans-serif" font-size="11" lengthAdjust="spacingAndGlyphs" text-decoration="underline" textLength="223" x="29" y="350.2114">ArrayList&lt;String[]&gt; loadCsv(String filename)</text><line style="stroke: #000000; stroke-width: 1.0;" x1="29" x2="252" y1="352.2114" y2="352.2114"/><ellipse cx="20" cy="362.1716" fill="#84BE84" rx="3" ry="3" style="stroke: #038048; stroke-width: 1.0;"/><text fill="#000000" font-family="sans-serif" font-size="11" lengthAdjust="spacingAndGlyphs" text-decoration="underline" textLength="170" x="29" y="365.084">Weapon loadWeapon(String name)</text><line style="stroke: #000000; stroke-width: 1.0;" x1="29" x2="199" y1="367.084" y2="367.084"/><ellipse cx="20" cy="377.0442" fill="#84BE84" rx="3" ry="3" style="stroke: #038048; stroke-width: 1.0;"/><text fill="#000000" font-family="sans-serif" font-size="11" lengthAdjust="spacingAndGlyphs" text-decoration="underline" textLength="94" x="29" y="379.9565">Player loadPlayer()</text><line style="stroke: #000000; stroke-width: 1.0;" x1="29" x2="123" y1="381.9565" y2="381.9565"/><ellipse cx="20" cy="391.9167" fill="#84BE84" rx="3" ry="3" style="stroke: #038048; stroke-width: 1.0;"/><text fill="#000000" font-family="sans-serif" font-size="11" lengthAdjust="spacingAndGlyphs" text-decoration="underline" textLength="158" x="29" y="394.8291">String loadText(String filename)</text><line style="stroke: #000000; stroke-width: 1.0;" x1="29" x2="187" y1="396.8291" y2="396.8291"/><ellipse cx="20" cy="406.7893" fill="#84BE84" rx="3" ry="3" style="stroke: #038048; stroke-width: 1.0;"/><text fill="#000000" font-family="sans-serif" font-size="11" lengthAdjust="spacingAndGlyphs" text-decoration="underline" textLength="118" x="29" y="409.7017">String loadDescription()</text><line style="stroke: #000000; stroke-width: 1.0;" x1="29" x2="147" y1="411.7017" y2="411.7017"/><ellipse cx="20" cy="421.6619" fill="#84BE84" rx="3" ry="3" style="stroke: #038048; stroke-width: 1.0;"/><text fill="#000000" font-family="sans-serif" font-size="11" lengthAdjust="spacingAndGlyphs" text-decoration="underline" textLength="150" x="29" y="424.5742">ArrayList&lt;Level&gt; loadLevels()</text><line style="stroke: #000000; stroke-width: 1.0;" x1="29" x2="179" y1="426.5742" y2="426.5742"/><!--class Attack--><rect fill="#FEFECE" filter="url(#fej7et7)" height="92.6177" style="stroke: #A80036; stroke-width: 1.5;" width="215" x="293" y="279.5"/><ellipse cx="379.25" cy="295.5" fill="#ADD1B2" rx="11" ry="11" style="stroke: #A80036; stroke-width: 1.0;"/><path d="M379.0469,302 Q377.8125,302 376.8594,301.5859 Q375.9063,301.1719 375.2344,300.3281 Q373.9219,298.6563 373.9219,295.5 Q373.9219,292.3438 375.2344,290.6719 Q375.9063,289.8281 376.8594,289.4141 Q377.8125,289 379.0469,289 Q379.4219,289 379.7578,289.0391 Q380.0938,289.0781 380.4219,289.1406 Q381.0781,289.2969 381.625,289.5781 L381.625,292.3438 Q381.2656,291.9375 380.9688,291.7188 Q380.6719,291.5 380.4063,291.3594 Q380.0938,291.2031 379.7891,291.1328 Q379.4844,291.0625 379.1719,291.0625 Q377.8438,291.0625 377.1563,292.1719 Q376.4688,293.3125 376.4688,295.5 Q376.4688,297.7031 377.1563,298.8125 Q377.8438,299.9375 379.1719,299.9375 Q379.8125,299.9375 380.4063,299.6563 Q380.7031,299.5156 380.9922,299.3125 Q381.2813,299.1094 381.625,298.7656 L381.625,301.4688 Q381.0469,301.7344 380.4063,301.8594 Q380.0938,301.9375 379.7578,301.9688 Q379.4219,302 379.0469,302 Z "/><text fill="#000000" font-family="sans-serif" font-size="12" lengthAdjust="spacingAndGlyphs" textLength="34" x="399.75" y="300.3135">Attack</text><line style="stroke: #A80036; stroke-width: 1.5;" x1="294" x2="507" y1="311.5" y2="311.5"/><ellipse cx="304" cy="324.4363" fill="none" rx="3" ry="3" style="stroke: #038048; stroke-width: 1.0;"/><text fill="#000000" font-family="sans-serif" font-size="11" lengthAdjust="spacingAndGlyphs" textLength="92" x="313" y="327.3486">DamageType type;</text><ellipse cx="304" cy="339.3088" fill="none" rx="3" ry="3" style="stroke: #038048; stroke-width: 1.0;"/><text fill="#000000" font-family="sans-serif" font-size="11" lengthAdjust="spacingAndGlyphs" textLength="56" x="313" y="342.2212">int amount;</text><line style="stroke: #A80036; stroke-width: 1.5;" x1="294" x2="507" y1="349.2451" y2="349.2451"/><ellipse cx="304" cy="362.1814" fill="#84BE84" rx="3" ry="3" style="stroke: #038048; stroke-width: 1.0;"/><text fill="#000000" font-family="sans-serif" font-size="11" lengthAdjust="spacingAndGlyphs" textLength="189" x="313" y="365.0938">Attack(DamageType type, int amount)</text><!--class DamageType--><rect fill="#FEFECE" filter="url(#fej7et7)" height="107.4902" style="stroke: #A80036; stroke-width: 1.5;" width="101" x="2459" y="994"/><ellipse cx="2474" cy="1010" fill="#EB937F" rx="11" ry="11" style="stroke: #A80036; stroke-width: 1.0;"/><path d="M2470.3906,1003.5 L2478.1094,1003.5 L2478.1094,1005.5625 L2472.8438,1005.5625 L2472.8438,1008.5 L2477.6094,1008.5 L2477.6094,1010.5625 L2472.8438,1010.5625 L2472.8438,1014.4375 L2478.1094,1014.4375 L2478.1094,1016.5 L2470.3906,1016.5 L2470.3906,1003.5 Z "/><text fill="#000000" font-family="sans-serif" font-size="12" lengthAdjust="spacingAndGlyphs" textLength="69" x="2488" y="1014.8135">DamageType</text><line style="stroke: #A80036; stroke-width: 1.5;" x1="2460" x2="2559" y1="1026" y2="1026"/><text fill="#000000" font-family="sans-serif" font-size="11" lengthAdjust="spacingAndGlyphs" textLength="52" x="2465" y="1041.8486">SLASHING</text><text fill="#000000" font-family="sans-serif" font-size="11" lengthAdjust="spacingAndGlyphs" textLength="48" x="2465" y="1056.7212">PIERCING</text><text fill="#000000" font-family="sans-serif" font-size="11" lengthAdjust="spacingAndGlyphs" textLength="23" x="2465" y="1071.5938">FIRE</text><text fill="#000000" font-family="sans-serif" font-size="11" lengthAdjust="spacingAndGlyphs" textLength="27" x="2465" y="1086.4663">COLD</text><line style="stroke: #A80036; stroke-width: 1.5;" x1="2460" x2="2559" y1="1093.4902" y2="1093.4902"/><path d="M1298.5,136.2175 C1298.5,169.3576 1298.5,212.8048 1298.5,249.7651 " fill="none" style="stroke: #A80036; stroke-width: 1.0;"/><polygon fill="#A80036" points="1298.5,123.1504,1294.5,129.1504,1298.5,135.1504,1302.5,129.1504,1298.5,123.1504" style="stroke: #A80036; stroke-width: 1.0;"/><path d="M1298.5,422.4672 C1298.5,445.9168 1298.5,470.3589 1298.5,491.6664 " fill="none" style="stroke: #A80036; stroke-width: 1.0;"/><polygon fill="none" points="1291.5001,422.2192,1298.5,402.2192,1305.5001,422.2192,1291.5001,422.2192" style="stroke: #A80036; stroke-width: 1.0;"/><path d="M1161.9881,609.3418 C1145.9773,615.9628 1129.8755,622.6272 1114.5,629 C1073.038,646.185 1027.2028,665.2392 988.1493,681.4912 " fill="none" style="stroke: #A80036; stroke-width: 1.0;"/><polygon fill="none" points="1159.5355,602.7812,1180.6927,601.6094,1164.8841,615.7193,1159.5355,602.7812" style="stroke: #A80036; stroke-width: 1.0;"/><path d="M1293.6326,634.5289 C1292.6555,650.8958 1291.6716,667.3759 1290.8304,681.4665 " fill="none" style="stroke: #A80036; stroke-width: 1.0;"/><polygon fill="none" points="1286.6536,633.967,1294.8332,614.4197,1300.6287,634.8014,1286.6536,633.967" style="stroke: #A80036; stroke-width: 1.0;"/><path d="M2012.1027,934.9092 C2013.9086,935.2788 2015.708,935.6425 2017.5,936 C2203.1608,973.0357 2264.7291,921.2214 2439.5,994 C2446.1366,996.7636 2452.6958,1000.3158 2458.9823,1004.2738 " fill="none" style="stroke: #A80036; stroke-width: 1.0;"/><polygon fill="#A80036" points="1999.1747,932.1892,2004.2225,937.3389,2010.9176,934.66,2005.8697,929.5103,1999.1747,932.1892" style="stroke: #A80036; stroke-width: 1.0;"/><path d="M1910.951,765.3047 C1966.7296,789.2312 2034.7379,818.4037 2088.3588,841.4046 " fill="none" style="stroke: #A80036; stroke-width: 1.0;"/><polygon fill="none" points="1908.1629,771.7256,1892.5421,757.4081,1913.682,758.8594,1908.1629,771.7256" style="stroke: #A80036; stroke-width: 1.0;"/><path d="M1806.5,787.3532 C1806.5,800.5669 1806.5,814.2726 1806.5,826.9747 " fill="none" style="stroke: #A80036; stroke-width: 1.0;"/><polygon fill="none" points="1799.5001,787.2088,1806.5,767.2087,1813.5001,787.2087,1799.5001,787.2088" style="stroke: #A80036; stroke-width: 1.0;"/><path d="M1764.7036,951.7245 C1753.301,971.1554 1741.3665,991.4928 1731.4428,1008.4036 " fill="none" style="stroke: #A80036; stroke-width: 1.0;"/><polygon fill="none" points="1758.7931,947.9656,1774.9527,934.2591,1770.8676,955.0512,1758.7931,947.9656" style="stroke: #A80036; stroke-width: 1.0;"/><path d="M1947.029,942.0967 C1991.3703,961.5324 2039.5984,982.6717 2081.1442,1000.8821 " fill="none" style="stroke: #A80036; stroke-width: 1.0;"/><polygon fill="none" points="1944.1304,948.4691,1928.6229,934.0289,1949.7507,935.6468,1944.1304,948.4691" style="stroke: #A80036; stroke-width: 1.0;"/><path d="M1428.4443,595.8458 C1520.0289,626.0435 1640.1353,665.6455 1720.1432,692.0261 " fill="none" style="stroke: #A80036; stroke-width: 1.0;"/><polygon fill="#A80036" points="1416.0027,591.7435,1420.4483,597.4212,1427.3991,595.5013,1422.9535,589.8236,1416.0027,591.7435" style="stroke: #A80036; stroke-width: 1.0;"/><path d="M2572.5,772.4574 C2572.5,797.6823 2572.5,827.1656 2572.5,848.9548 " fill="none" style="stroke: #A80036; stroke-width: 1.0; stroke-dasharray: 7.0,7.0;"/><polygon fill="none" points="2565.5001,772.1109,2572.5,752.1109,2579.5001,772.1108,2565.5001,772.1109" style="stroke: #A80036; stroke-width: 1.0;"/><path d="M2632.7178,763.9002 C2669.9916,790.7642 2717.0043,824.6473 2750.7311,848.9548 " fill="none" style="stroke: #A80036; stroke-width: 1.0; stroke-dasharray: 7.0,7.0;"/><polygon fill="none" points="2628.4924,769.4835,2616.3601,752.1109,2636.6781,758.1259,2628.4924,769.4835" style="stroke: #A80036; stroke-width: 1.0;"/><path d="M1429.2732,557.8075 C1708.7042,568.6435 2346.2234,596.5747 2439.5,629 C2476.4298,641.8377 2512.6049,667.8544 2537.8818,688.8749 " fill="none" style="stroke: #A80036; stroke-width: 1.0;"/><polygon fill="#A80036" points="1416.2412,557.3045,1422.0824,561.533,1428.2323,557.7675,1422.3911,553.539,1416.2412,557.3045" style="stroke: #A80036; stroke-width: 1.0;"/></g></svg>