<?xml version="1.0" encoding="UTF-8" standalone="no"?><svg xmlns="http://www.w3.org/2000/svg" xmlns:xlink="http://www.w3.org/1999/xlink" contentScriptType="application/ecmascript" contentStyleType="text/css" height="771.4px" preserveAspectRatio="none" style="width:1805px;height:771px;" version="1.1" viewBox="0 0 1805 771" width="1805.3px" zoomAndPan="magnify"><defs><filter height="300%" id="fcsk903" width="300%" x="-1" y="-1"><feGaussianBlur result="blurOut" stdDeviation="1.399999976158142"/><feColorMatrix in="blurOut" result="blurOut2" type="matrix" values="0 0 0 0 0 0 0 0 0 0 0 0 0 0 0 0 0 0 .4 0"/><feOffset dx="2.799999952316284" dy="2.799999952316284" in="blurOut2" result="blurOut3"/><feBlend in="SourceGraphic" in2="blurOut3" mode="normal"/></filter></defs><g><!--cluster game_objects--><polygon fill="#FFFFFF" filter="url(#fcsk903)" points="479.85,149.1,547.05,149.1,551.95,166.5501,1030.05,166.5501,1030.05,532.35,479.85,532.35,479.85,149.1" style="stroke: #000000; stroke-width: 1.399999976158142;"/><line style="stroke: #000000; stroke-width: 1.399999976158142;" x1="479.85" x2="551.95" y1="166.5501" y2="166.5501"/><text fill="#000000" font-family="sans-serif" font-size="9.8" font-weight="bold" lengthAdjust="spacingAndGlyphs" textLength="63" x="482.65" y="161.0561">game_objects</text><!--cluster items--><polygon fill="#FFFFFF" filter="url(#fcsk903)" points="1046.85,435.4,1076.25,435.4,1081.15,452.8501,1714.65,452.8501,1714.65,766.5,1046.85,766.5,1046.85,435.4" style="stroke: #000000; stroke-width: 1.399999976158142;"/><line style="stroke: #000000; stroke-width: 1.399999976158142;" x1="1046.85" x2="1081.15" y1="452.8501" y2="452.8501"/><text fill="#000000" font-family="sans-serif" font-size="9.8" font-weight="bold" lengthAdjust="spacingAndGlyphs" textLength="25.2" x="1049.65" y="447.356">items</text><!--class GameObject--><rect fill="#FEFECE" filter="url(#fcsk903)" height="106.4755" style="stroke: #A80036; stroke-width: 1.0499999821186066;" width="191.8" x="813.05" y="175"/><ellipse cx="883.575" cy="186.2" fill="#ADD1B2" rx="7.7" ry="7.7" style="stroke: #A80036; stroke-width: 0.699999988079071;"/><path d="M883.4328,190.75 Q882.5687,190.75 881.9015,190.4602 Q881.2344,190.1703 880.764,189.5797 Q879.8453,188.4094 879.8453,186.2 Q879.8453,183.9906 880.764,182.8203 Q881.2344,182.2297 881.9015,181.9398 Q882.5687,181.65 883.4328,181.65 Q883.6953,181.65 883.9305,181.6773 Q884.1656,181.7047 884.3953,181.7484 Q884.8547,181.8578 885.2375,182.0547 L885.2375,183.9906 Q884.9859,183.7062 884.7781,183.5531 Q884.5703,183.4 884.3844,183.3016 Q884.1656,183.1922 883.9523,183.143 Q883.739,183.0937 883.5203,183.0937 Q882.5906,183.0937 882.1094,183.8703 Q881.6281,184.6687 881.6281,186.2 Q881.6281,187.7422 882.1094,188.5187 Q882.5906,189.3062 883.5203,189.3062 Q883.9687,189.3062 884.3844,189.1094 Q884.5922,189.0109 884.7945,188.8687 Q884.9969,188.7266 885.2375,188.4859 L885.2375,190.3781 Q884.8328,190.5641 884.3844,190.6516 Q884.1656,190.7062 883.9305,190.7281 Q883.6953,190.75 883.4328,190.75 Z "/><text fill="#000000" font-family="sans-serif" font-size="8.4" lengthAdjust="spacingAndGlyphs" textLength="44.8" x="897.925" y="189.5694">GameObject</text><line style="stroke: #A80036; stroke-width: 1.0499999821186066;" x1="813.75" x2="1004.15" y1="197.4" y2="197.4"/><ellipse cx="820.75" cy="206.4554" fill="none" rx="2.1" ry="2.1" style="stroke: #038048; stroke-width: 0.699999988079071;"/><text fill="#000000" font-family="sans-serif" font-size="7.7" lengthAdjust="spacingAndGlyphs" textLength="42" x="827.05" y="208.494">String name</text><ellipse cx="820.75" cy="216.8662" fill="none" rx="2.1" ry="2.1" style="stroke: #038048; stroke-width: 0.699999988079071;"/><text fill="#000000" font-family="sans-serif" font-size="7.7" lengthAdjust="spacingAndGlyphs" textLength="14.7" x="827.05" y="218.9048">int x</text><ellipse cx="820.75" cy="227.277" fill="none" rx="2.1" ry="2.1" style="stroke: #038048; stroke-width: 0.699999988079071;"/><text fill="#000000" font-family="sans-serif" font-size="7.7" lengthAdjust="spacingAndGlyphs" textLength="15.4" x="827.05" y="229.3156">int y</text><ellipse cx="820.75" cy="237.6878" fill="none" rx="2.1" ry="2.1" style="stroke: #038048; stroke-width: 0.699999988079071;"/><text fill="#000000" font-family="sans-serif" font-size="7.7" lengthAdjust="spacingAndGlyphs" textLength="41.3" x="827.05" y="239.7264">int hitpoints</text><ellipse cx="820.75" cy="248.0986" fill="none" rx="2.1" ry="2.1" style="stroke: #038048; stroke-width: 0.699999988079071;"/><text fill="#000000" font-family="sans-serif" font-size="7.7" lengthAdjust="spacingAndGlyphs" textLength="49.7" x="827.05" y="250.1372">boolean intact</text><line style="stroke: #A80036; stroke-width: 1.0499999821186066;" x1="813.75" x2="1004.15" y1="255.054" y2="255.054"/><ellipse cx="820.75" cy="264.1093" fill="#84BE84" rx="2.1" ry="2.1" style="stroke: #038048; stroke-width: 0.699999988079071;"/><text fill="#000000" font-family="sans-serif" font-size="7.7" lengthAdjust="spacingAndGlyphs" textLength="173.6" x="827.05" y="266.148">GameObject(String name, int hitpoints, int x, int y)</text><ellipse cx="820.75" cy="274.5201" fill="#84BE84" rx="2.1" ry="2.1" style="stroke: #038048; stroke-width: 0.699999988079071;"/><text fill="#000000" font-family="sans-serif" font-size="7.7" lengthAdjust="spacingAndGlyphs" textLength="78.4" x="827.05" y="276.5588">void hit(Attack attack)</text><!--class Mob--><rect fill="#FEFECE" filter="url(#fcsk903)" height="75.2432" style="stroke: #A80036; stroke-width: 1.0499999821186066;" width="164.5" x="826.7" y="344.4"/><ellipse cx="897.925" cy="355.6" fill="#ADD1B2" rx="7.7" ry="7.7" style="stroke: #A80036; stroke-width: 0.699999988079071;"/><path d="M897.7828,360.15 Q896.9187,360.15 896.2515,359.8602 Q895.5844,359.5703 895.114,358.9797 Q894.1953,357.8094 894.1953,355.6 Q894.1953,353.3906 895.114,352.2203 Q895.5844,351.6297 896.2515,351.3398 Q896.9187,351.05 897.7828,351.05 Q898.0453,351.05 898.2805,351.0773 Q898.5156,351.1047 898.7453,351.1484 Q899.2047,351.2578 899.5875,351.4547 L899.5875,353.3906 Q899.3359,353.1062 899.1281,352.9531 Q898.9203,352.8 898.7344,352.7016 Q898.5156,352.5922 898.3023,352.543 Q898.089,352.4937 897.8703,352.4937 Q896.9406,352.4937 896.4594,353.2703 Q895.9781,354.0687 895.9781,355.6 Q895.9781,357.1422 896.4594,357.9187 Q896.9406,358.7062 897.8703,358.7062 Q898.3187,358.7062 898.7344,358.5094 Q898.9422,358.4109 899.1445,358.2687 Q899.3469,358.1266 899.5875,357.8859 L899.5875,359.7781 Q899.1828,359.9641 898.7344,360.0516 Q898.5156,360.1062 898.2805,360.1281 Q898.0453,360.15 897.7828,360.15 Z "/><text fill="#000000" font-family="sans-serif" font-size="8.4" lengthAdjust="spacingAndGlyphs" textLength="16.1" x="912.275" y="358.9694">Mob</text><line style="stroke: #A80036; stroke-width: 1.0499999821186066;" x1="827.4" x2="990.5" y1="366.8" y2="366.8"/><ellipse cx="834.4" cy="375.8554" fill="none" rx="2.1" ry="2.1" style="stroke: #038048; stroke-width: 0.699999988079071;"/><text fill="#000000" font-family="sans-serif" font-size="7.7" lengthAdjust="spacingAndGlyphs" textLength="93.1" x="840.7" y="377.894">ArrayList&lt;Item&gt; inventory</text><line style="stroke: #A80036; stroke-width: 1.0499999821186066;" x1="827.4" x2="990.5" y1="382.8108" y2="382.8108"/><ellipse cx="834.4" cy="391.8662" fill="#84BE84" rx="2.1" ry="2.1" style="stroke: #038048; stroke-width: 0.699999988079071;"/><text fill="#000000" font-family="sans-serif" font-size="7.7" lengthAdjust="spacingAndGlyphs" textLength="146.3" x="840.7" y="393.9048">Mob(String name, int hitpoints, int x, int y)</text><ellipse cx="834.4" cy="402.277" fill="#84BE84" rx="2.1" ry="2.1" style="stroke: #038048; stroke-width: 0.699999988079071;"/><text fill="#000000" font-family="sans-serif" font-size="7.7" lengthAdjust="spacingAndGlyphs" textLength="114.8" x="840.7" y="404.3156">void move(Level level, int x, int y)</text><ellipse cx="834.4" cy="412.6878" fill="#84BE84" rx="2.1" ry="2.1" style="stroke: #038048; stroke-width: 0.699999988079071;"/><text fill="#000000" font-family="sans-serif" font-size="7.7" lengthAdjust="spacingAndGlyphs" textLength="78.4" x="840.7" y="414.7264">void hit(Attack attack)</text><!--class Player--><rect fill="#FEFECE" filter="url(#fcsk903)" height="54.4216" style="stroke: #A80036; stroke-width: 1.0499999821186066;" width="283.5" x="491.4" y="466.55"/><ellipse cx="618.625" cy="477.75" fill="#ADD1B2" rx="7.7" ry="7.7" style="stroke: #A80036; stroke-width: 0.699999988079071;"/><path d="M618.4828,482.3 Q617.6187,482.3 616.9516,482.0101 Q616.2844,481.7203 615.8141,481.1297 Q614.8953,479.9594 614.8953,477.75 Q614.8953,475.5406 615.8141,474.3703 Q616.2844,473.7797 616.9516,473.4898 Q617.6187,473.2 618.4828,473.2 Q618.7453,473.2 618.9805,473.2273 Q619.2156,473.2547 619.4453,473.2984 Q619.9047,473.4078 620.2875,473.6047 L620.2875,475.5406 Q620.0359,475.2562 619.8281,475.1031 Q619.6203,474.95 619.4344,474.8516 Q619.2156,474.7422 619.0023,474.693 Q618.7891,474.6437 618.5703,474.6437 Q617.6406,474.6437 617.1594,475.4203 Q616.6781,476.2187 616.6781,477.75 Q616.6781,479.2922 617.1594,480.0687 Q617.6406,480.8562 618.5703,480.8562 Q619.0187,480.8562 619.4344,480.6594 Q619.6422,480.5609 619.8445,480.4187 Q620.0469,480.2766 620.2875,480.0359 L620.2875,481.9281 Q619.8828,482.1141 619.4344,482.2016 Q619.2156,482.2562 618.9805,482.2781 Q618.7453,482.3 618.4828,482.3 Z "/><text fill="#000000" font-family="sans-serif" font-size="8.4" lengthAdjust="spacingAndGlyphs" textLength="23.1" x="632.975" y="481.1194">Player</text><line style="stroke: #A80036; stroke-width: 1.0499999821186066;" x1="492.1" x2="774.2" y1="488.95" y2="488.95"/><line style="stroke: #A80036; stroke-width: 1.0499999821186066;" x1="492.1" x2="774.2" y1="494.55" y2="494.55"/><ellipse cx="499.1" cy="503.6054" fill="#84BE84" rx="2.1" ry="2.1" style="stroke: #038048; stroke-width: 0.699999988079071;"/><text fill="#000000" font-family="sans-serif" font-size="7.7" lengthAdjust="spacingAndGlyphs" textLength="153.3" x="505.4" y="505.644">Player(String name, int hitpoints, int x, int y)</text><ellipse cx="499.1" cy="514.0162" fill="#84BE84" rx="2.1" ry="2.1" style="stroke: #038048; stroke-width: 0.699999988079071;"/><text fill="#000000" font-family="sans-serif" font-size="7.7" lengthAdjust="spacingAndGlyphs" textLength="265.3" x="505.4" y="516.0548">boolean useWeapon(Level level, String weapon, int directionX, int directionY)</text><!--class NonPlayerCharacter--><rect fill="#FEFECE" filter="url(#fcsk903)" height="54.4216" style="stroke: #A80036; stroke-width: 1.0499999821186066;" width="219.1" x="799.4" y="466.55"/><ellipse cx="868.175" cy="477.75" fill="#ADD1B2" rx="7.7" ry="7.7" style="stroke: #A80036; stroke-width: 0.699999988079071;"/><path d="M868.0328,482.3 Q867.1687,482.3 866.5015,482.0101 Q865.8344,481.7203 865.364,481.1297 Q864.4453,479.9594 864.4453,477.75 Q864.4453,475.5406 865.364,474.3703 Q865.8344,473.7797 866.5015,473.4898 Q867.1687,473.2 868.0328,473.2 Q868.2953,473.2 868.5305,473.2273 Q868.7656,473.2547 868.9953,473.2984 Q869.4547,473.4078 869.8375,473.6047 L869.8375,475.5406 Q869.5859,475.2562 869.3781,475.1031 Q869.1703,474.95 868.9844,474.8516 Q868.7656,474.7422 868.5523,474.693 Q868.339,474.6437 868.1203,474.6437 Q867.1906,474.6437 866.7094,475.4203 Q866.2281,476.2187 866.2281,477.75 Q866.2281,479.2922 866.7094,480.0687 Q867.1906,480.8562 868.1203,480.8562 Q868.5687,480.8562 868.9844,480.6594 Q869.1922,480.5609 869.3945,480.4187 Q869.5969,480.2766 869.8375,480.0359 L869.8375,481.9281 Q869.4328,482.1141 868.9844,482.2016 Q868.7656,482.2562 868.5305,482.2781 Q868.2953,482.3 868.0328,482.3 Z "/><text fill="#000000" font-family="sans-serif" font-size="8.4" lengthAdjust="spacingAndGlyphs" textLength="75.6" x="882.525" y="481.1194">NonPlayerCharacter</text><line style="stroke: #A80036; stroke-width: 1.0499999821186066;" x1="800.1" x2="1017.8" y1="488.95" y2="488.95"/><line style="stroke: #A80036; stroke-width: 1.0499999821186066;" x1="800.1" x2="1017.8" y1="494.55" y2="494.55"/><ellipse cx="807.1" cy="503.6054" fill="#84BE84" rx="2.1" ry="2.1" style="stroke: #038048; stroke-width: 0.699999988079071;"/><text fill="#000000" font-family="sans-serif" font-size="7.7" lengthAdjust="spacingAndGlyphs" textLength="200.9" x="813.4" y="505.644">NonPlayerCharacter(String name, int hitpoints, int x, int y)</text><ellipse cx="807.1" cy="514.0162" fill="#84BE84" rx="2.1" ry="2.1" style="stroke: #038048; stroke-width: 0.699999988079071;"/><text fill="#000000" font-family="sans-serif" font-size="7.7" lengthAdjust="spacingAndGlyphs" textLength="45.5" x="813.4" y="516.0548">void update()</text><!--class Weapon--><rect fill="#FEFECE" filter="url(#fcsk903)" height="75.2432" style="stroke: #A80036; stroke-width: 1.0499999821186066;" width="269.5" x="1136.8" y="568.4"/><ellipse cx="1253.525" cy="579.6" fill="#ADD1B2" rx="7.7" ry="7.7" style="stroke: #A80036; stroke-width: 0.699999988079071;"/><path d="M1253.3828,584.15 Q1252.5187,584.15 1251.8515,583.8601 Q1251.1844,583.5703 1250.714,582.9797 Q1249.7953,581.8094 1249.7953,579.6 Q1249.7953,577.3906 1250.714,576.2203 Q1251.1844,575.6297 1251.8515,575.3398 Q1252.5187,575.05 1253.3828,575.05 Q1253.6453,575.05 1253.8804,575.0773 Q1254.1156,575.1047 1254.3453,575.1484 Q1254.8047,575.2578 1255.1875,575.4547 L1255.1875,577.3906 Q1254.9359,577.1062 1254.7281,576.9531 Q1254.5203,576.8 1254.3344,576.7016 Q1254.1156,576.5922 1253.9023,576.543 Q1253.689,576.4937 1253.4703,576.4937 Q1252.5406,576.4937 1252.0594,577.2703 Q1251.5781,578.0687 1251.5781,579.6 Q1251.5781,581.1422 1252.0594,581.9187 Q1252.5406,582.7062 1253.4703,582.7062 Q1253.9187,582.7062 1254.3344,582.5094 Q1254.5422,582.4109 1254.7445,582.2687 Q1254.9469,582.1266 1255.1875,581.8859 L1255.1875,583.7781 Q1254.7828,583.9641 1254.3344,584.0516 Q1254.1156,584.1062 1253.8804,584.1281 Q1253.6453,584.15 1253.3828,584.15 Z "/><text fill="#000000" font-family="sans-serif" font-size="8.4" lengthAdjust="spacingAndGlyphs" textLength="30.1" x="1267.875" y="582.9694">Weapon</text><line style="stroke: #A80036; stroke-width: 1.0499999821186066;" x1="1137.5" x2="1405.6" y1="590.8" y2="590.8"/><ellipse cx="1144.5" cy="599.8554" fill="none" rx="2.1" ry="2.1" style="stroke: #038048; stroke-width: 0.699999988079071;"/><text fill="#000000" font-family="sans-serif" font-size="7.7" lengthAdjust="spacingAndGlyphs" textLength="91" x="1150.8" y="601.894">DamageType damageType</text><ellipse cx="1144.5" cy="610.2662" fill="none" rx="2.1" ry="2.1" style="stroke: #038048; stroke-width: 0.699999988079071;"/><text fill="#000000" font-family="sans-serif" font-size="7.7" lengthAdjust="spacingAndGlyphs" textLength="38.5" x="1150.8" y="612.3048">int damage</text><line style="stroke: #A80036; stroke-width: 1.0499999821186066;" x1="1137.5" x2="1405.6" y1="617.2216" y2="617.2216"/><ellipse cx="1144.5" cy="626.277" fill="#84BE84" rx="2.1" ry="2.1" style="stroke: #038048; stroke-width: 0.699999988079071;"/><text fill="#000000" font-family="sans-serif" font-size="7.7" lengthAdjust="spacingAndGlyphs" textLength="251.3" x="1150.8" y="628.3156">Weapon(String name, int weight, DamageType damageType, int damage)</text><ellipse cx="1144.5" cy="636.6878" fill="#84BE84" rx="2.1" ry="2.1" style="stroke: #038048; stroke-width: 0.699999988079071;"/><text fill="#000000" font-family="sans-serif" font-size="7.7" lengthAdjust="spacingAndGlyphs" textLength="219.8" x="1150.8" y="638.7264">void attack(Level level, int directionX, int directionY, int x, int y)</text><!--class Item--><rect fill="#FEFECE" filter="url(#fcsk903)" height="64.8324" style="stroke: #A80036; stroke-width: 1.0499999821186066;" width="120.4" x="1211.35" y="461.3"/><ellipse cx="1259.825" cy="472.5" fill="#ADD1B2" rx="7.7" ry="7.7" style="stroke: #A80036; stroke-width: 0.699999988079071;"/><path d="M1259.6828,477.05 Q1258.8187,477.05 1258.1515,476.7601 Q1257.4844,476.4703 1257.014,475.8797 Q1256.0953,474.7094 1256.0953,472.5 Q1256.0953,470.2906 1257.014,469.1203 Q1257.4844,468.5297 1258.1515,468.2398 Q1258.8187,467.95 1259.6828,467.95 Q1259.9453,467.95 1260.1804,467.9773 Q1260.4156,468.0047 1260.6453,468.0484 Q1261.1047,468.1578 1261.4875,468.3547 L1261.4875,470.2906 Q1261.2359,470.0062 1261.0281,469.8531 Q1260.8203,469.7 1260.6344,469.6016 Q1260.4156,469.4922 1260.2023,469.443 Q1259.989,469.3937 1259.7703,469.3937 Q1258.8406,469.3937 1258.3594,470.1703 Q1257.8781,470.9687 1257.8781,472.5 Q1257.8781,474.0422 1258.3594,474.8187 Q1258.8406,475.6062 1259.7703,475.6062 Q1260.2187,475.6062 1260.6344,475.4094 Q1260.8422,475.3109 1261.0445,475.1687 Q1261.2469,475.0266 1261.4875,474.7859 L1261.4875,476.6781 Q1261.0828,476.8641 1260.6344,476.9516 Q1260.4156,477.0062 1260.1804,477.0281 Q1259.9453,477.05 1259.6828,477.05 Z "/><text fill="#000000" font-family="sans-serif" font-size="8.4" lengthAdjust="spacingAndGlyphs" textLength="17.5" x="1274.175" y="475.8694">Item</text><line style="stroke: #A80036; stroke-width: 1.0499999821186066;" x1="1212.05" x2="1331.05" y1="483.7" y2="483.7"/><ellipse cx="1219.05" cy="492.7554" fill="none" rx="2.1" ry="2.1" style="stroke: #038048; stroke-width: 0.699999988079071;"/><text fill="#000000" font-family="sans-serif" font-size="7.7" lengthAdjust="spacingAndGlyphs" textLength="42" x="1225.35" y="494.794">String name</text><ellipse cx="1219.05" cy="503.1662" fill="none" rx="2.1" ry="2.1" style="stroke: #038048; stroke-width: 0.699999988079071;"/><text fill="#000000" font-family="sans-serif" font-size="7.7" lengthAdjust="spacingAndGlyphs" textLength="34.3" x="1225.35" y="505.2048">int weight</text><line style="stroke: #A80036; stroke-width: 1.0499999821186066;" x1="1212.05" x2="1331.05" y1="510.1216" y2="510.1216"/><ellipse cx="1219.05" cy="519.177" fill="#84BE84" rx="2.1" ry="2.1" style="stroke: #038048; stroke-width: 0.699999988079071;"/><text fill="#000000" font-family="sans-serif" font-size="7.7" lengthAdjust="spacingAndGlyphs" textLength="102.2" x="1225.35" y="521.2156">Item(String name, int weight)</text><!--class Armor--><rect fill="#FEFECE" filter="url(#fcsk903)" height="54.4216" style="stroke: #A80036; stroke-width: 1.0499999821186066;" width="203" x="1431.15" y="578.55"/><ellipse cx="1517.425" cy="589.75" fill="#ADD1B2" rx="7.7" ry="7.7" style="stroke: #A80036; stroke-width: 0.699999988079071;"/><path d="M1517.2828,594.3 Q1516.4187,594.3 1515.7515,594.0101 Q1515.0843,593.7203 1514.614,593.1297 Q1513.6953,591.9594 1513.6953,589.75 Q1513.6953,587.5406 1514.614,586.3703 Q1515.0843,585.7797 1515.7515,585.4898 Q1516.4187,585.2 1517.2828,585.2 Q1517.5453,585.2 1517.7804,585.2273 Q1518.0156,585.2547 1518.2453,585.2984 Q1518.7047,585.4078 1519.0875,585.6047 L1519.0875,587.5406 Q1518.8359,587.2562 1518.6281,587.1031 Q1518.4203,586.95 1518.2343,586.8516 Q1518.0156,586.7422 1517.8023,586.693 Q1517.589,586.6437 1517.3703,586.6437 Q1516.4406,586.6437 1515.9593,587.4203 Q1515.4781,588.2187 1515.4781,589.75 Q1515.4781,591.2922 1515.9593,592.0687 Q1516.4406,592.8562 1517.3703,592.8562 Q1517.8187,592.8562 1518.2343,592.6594 Q1518.4422,592.5609 1518.6445,592.4187 Q1518.8468,592.2766 1519.0875,592.0359 L1519.0875,593.9281 Q1518.6828,594.1141 1518.2343,594.2016 Q1518.0156,594.2562 1517.7804,594.2781 Q1517.5453,594.3 1517.2828,594.3 Z "/><text fill="#000000" font-family="sans-serif" font-size="8.4" lengthAdjust="spacingAndGlyphs" textLength="24.5" x="1531.775" y="593.1194">Armor</text><line style="stroke: #A80036; stroke-width: 1.0499999821186066;" x1="1431.85" x2="1633.45" y1="600.95" y2="600.95"/><ellipse cx="1438.85" cy="610.0054" fill="none" rx="2.1" ry="2.1" style="stroke: #038048; stroke-width: 0.699999988079071;"/><text fill="#000000" font-family="sans-serif" font-size="7.7" lengthAdjust="spacingAndGlyphs" textLength="184.8" x="1445.15" y="612.044">HashMap&lt;DamageType, Integer&gt; damageReductions</text><line style="stroke: #A80036; stroke-width: 1.0499999821186066;" x1="1431.85" x2="1633.45" y1="616.9608" y2="616.9608"/><ellipse cx="1438.85" cy="626.0162" fill="#84BE84" rx="2.1" ry="2.1" style="stroke: #038048; stroke-width: 0.699999988079071;"/><text fill="#000000" font-family="sans-serif" font-size="7.7" lengthAdjust="spacingAndGlyphs" textLength="107.1" x="1445.15" y="628.0548">Armor(String name, int weight)</text><!--class MeleeWeapon--><rect fill="#FEFECE" filter="url(#fcsk903)" height="54.4216" style="stroke: #A80036; stroke-width: 1.0499999821186066;" width="290.5" x="1057.7" y="695.45"/><ellipse cx="1174.425" cy="706.65" fill="#ADD1B2" rx="7.7" ry="7.7" style="stroke: #A80036; stroke-width: 0.699999988079071;"/><path d="M1174.2828,711.2 Q1173.4187,711.2 1172.7515,710.9101 Q1172.0844,710.6203 1171.614,710.0297 Q1170.6953,708.8594 1170.6953,706.65 Q1170.6953,704.4406 1171.614,703.2703 Q1172.0844,702.6797 1172.7515,702.3898 Q1173.4187,702.1 1174.2828,702.1 Q1174.5453,702.1 1174.7804,702.1273 Q1175.0156,702.1547 1175.2453,702.1984 Q1175.7047,702.3078 1176.0875,702.5047 L1176.0875,704.4406 Q1175.8359,704.1562 1175.6281,704.0031 Q1175.4203,703.85 1175.2344,703.7516 Q1175.0156,703.6422 1174.8023,703.593 Q1174.589,703.5437 1174.3703,703.5437 Q1173.4406,703.5437 1172.9594,704.3203 Q1172.4781,705.1187 1172.4781,706.65 Q1172.4781,708.1922 1172.9594,708.9687 Q1173.4406,709.7562 1174.3703,709.7562 Q1174.8187,709.7562 1175.2344,709.5594 Q1175.4422,709.4609 1175.6445,709.3187 Q1175.8469,709.1766 1176.0875,708.9359 L1176.0875,710.8281 Q1175.6828,711.0141 1175.2344,711.1016 Q1175.0156,711.1562 1174.7804,711.1781 Q1174.5453,711.2 1174.2828,711.2 Z "/><text fill="#000000" font-family="sans-serif" font-size="8.4" lengthAdjust="spacingAndGlyphs" textLength="51.1" x="1188.775" y="710.0194">MeleeWeapon</text><line style="stroke: #A80036; stroke-width: 1.0499999821186066;" x1="1058.4" x2="1347.5" y1="717.85" y2="717.85"/><line style="stroke: #A80036; stroke-width: 1.0499999821186066;" x1="1058.4" x2="1347.5" y1="723.45" y2="723.45"/><ellipse cx="1065.4" cy="732.5054" fill="#84BE84" rx="2.1" ry="2.1" style="stroke: #038048; stroke-width: 0.699999988079071;"/><text fill="#000000" font-family="sans-serif" font-size="7.7" lengthAdjust="spacingAndGlyphs" textLength="272.3" x="1071.7" y="734.544">MeleeWeapon(String name, int weight, DamageType damageType, int damage)</text><ellipse cx="1065.4" cy="742.9162" fill="#84BE84" rx="2.1" ry="2.1" style="stroke: #038048; stroke-width: 0.699999988079071;"/><text fill="#000000" font-family="sans-serif" font-size="7.7" lengthAdjust="spacingAndGlyphs" textLength="219.8" x="1071.7" y="744.9548">void attack(Level level, int directionX, int directionY, int x, int y)</text><!--class RangedWeapon--><rect fill="#FEFECE" filter="url(#fcsk903)" height="64.8324" style="stroke: #A80036; stroke-width: 1.0499999821186066;" width="330.4" x="1373.05" y="690.2"/><ellipse cx="1506.225" cy="701.4" fill="#ADD1B2" rx="7.7" ry="7.7" style="stroke: #A80036; stroke-width: 0.699999988079071;"/><path d="M1506.0828,705.95 Q1505.2187,705.95 1504.5515,705.6601 Q1503.8843,705.3703 1503.414,704.7797 Q1502.4953,703.6094 1502.4953,701.4 Q1502.4953,699.1906 1503.414,698.0203 Q1503.8843,697.4297 1504.5515,697.1398 Q1505.2187,696.85 1506.0828,696.85 Q1506.3453,696.85 1506.5804,696.8773 Q1506.8156,696.9047 1507.0453,696.9484 Q1507.5047,697.0578 1507.8875,697.2547 L1507.8875,699.1906 Q1507.6359,698.9062 1507.4281,698.7531 Q1507.2203,698.6 1507.0343,698.5016 Q1506.8156,698.3922 1506.6023,698.343 Q1506.389,698.2937 1506.1703,698.2937 Q1505.2406,698.2937 1504.7593,699.0703 Q1504.2781,699.8687 1504.2781,701.4 Q1504.2781,702.9422 1504.7593,703.7187 Q1505.2406,704.5062 1506.1703,704.5062 Q1506.6187,704.5062 1507.0343,704.3094 Q1507.2422,704.2109 1507.4445,704.0687 Q1507.6468,703.9266 1507.8875,703.6859 L1507.8875,705.5781 Q1507.4828,705.7641 1507.0343,705.8516 Q1506.8156,705.9062 1506.5804,705.9281 Q1506.3453,705.95 1506.0828,705.95 Z "/><text fill="#000000" font-family="sans-serif" font-size="8.4" lengthAdjust="spacingAndGlyphs" textLength="58.1" x="1520.575" y="704.7694">RangedWeapon</text><line style="stroke: #A80036; stroke-width: 1.0499999821186066;" x1="1373.75" x2="1702.75" y1="712.6" y2="712.6"/><ellipse cx="1380.75" cy="721.6554" fill="none" rx="2.1" ry="2.1" style="stroke: #038048; stroke-width: 0.699999988079071;"/><text fill="#000000" font-family="sans-serif" font-size="7.7" lengthAdjust="spacingAndGlyphs" textLength="30.8" x="1387.05" y="723.694">int range</text><line style="stroke: #A80036; stroke-width: 1.0499999821186066;" x1="1373.75" x2="1702.75" y1="728.6108" y2="728.6108"/><ellipse cx="1380.75" cy="737.6662" fill="#84BE84" rx="2.1" ry="2.1" style="stroke: #038048; stroke-width: 0.699999988079071;"/><text fill="#000000" font-family="sans-serif" font-size="7.7" lengthAdjust="spacingAndGlyphs" textLength="312.2" x="1387.05" y="739.7048">RangedWeapon(String name, int weight, DamageType damageType, int damage, int range)</text><ellipse cx="1380.75" cy="748.077" fill="#84BE84" rx="2.1" ry="2.1" style="stroke: #038048; stroke-width: 0.699999988079071;"/><text fill="#000000" font-family="sans-serif" font-size="7.7" lengthAdjust="spacingAndGlyphs" textLength="219.8" x="1387.05" y="750.1156">void attack(Level level, int directionX, int directionY, int x, int y)</text><!--class Main--><rect fill="#FEFECE" filter="url(#fcsk903)" height="54.4216" style="stroke: #A80036; stroke-width: 1.0499999821186066;" width="178.5" x="4.2" y="31.5"/><ellipse cx="81.725" cy="42.7" fill="#ADD1B2" rx="7.7" ry="7.7" style="stroke: #A80036; stroke-width: 0.699999988079071;"/><path d="M81.5828,47.25 Q80.7187,47.25 80.0516,46.9602 Q79.3844,46.6703 78.9141,46.0797 Q77.9953,44.9094 77.9953,42.7 Q77.9953,40.4906 78.9141,39.3203 Q79.3844,38.7297 80.0516,38.4398 Q80.7187,38.15 81.5828,38.15 Q81.8453,38.15 82.0805,38.1773 Q82.3156,38.2047 82.5453,38.2484 Q83.0047,38.3578 83.3875,38.5547 L83.3875,40.4906 Q83.1359,40.2062 82.9281,40.0531 Q82.7203,39.9 82.5344,39.8016 Q82.3156,39.6922 82.1023,39.643 Q81.8891,39.5937 81.6703,39.5937 Q80.7406,39.5937 80.2594,40.3703 Q79.7781,41.1687 79.7781,42.7 Q79.7781,44.2422 80.2594,45.0187 Q80.7406,45.8062 81.6703,45.8062 Q82.1187,45.8062 82.5344,45.6094 Q82.7422,45.5109 82.9445,45.3687 Q83.1469,45.2266 83.3875,44.9859 L83.3875,46.8781 Q82.9828,47.0641 82.5344,47.1516 Q82.3156,47.2062 82.0805,47.2281 Q81.8453,47.25 81.5828,47.25 Z "/><text fill="#000000" font-family="sans-serif" font-size="8.4" lengthAdjust="spacingAndGlyphs" textLength="17.5" x="96.075" y="46.0694">Main</text><line style="stroke: #A80036; stroke-width: 1.0499999821186066;" x1="4.9" x2="182" y1="53.9" y2="53.9"/><line style="stroke: #A80036; stroke-width: 1.0499999821186066;" x1="4.9" x2="182" y1="59.5" y2="59.5"/><ellipse cx="11.9" cy="68.5554" fill="#84BE84" rx="2.1" ry="2.1" style="stroke: #038048; stroke-width: 0.699999988079071;"/><text fill="#000000" font-family="sans-serif" font-size="7.7" lengthAdjust="spacingAndGlyphs" text-decoration="underline" textLength="81.9" x="18.2" y="70.594">void main(String[] args)</text><line style="stroke: #000000; stroke-width: 1.0;" x1="18.2" x2="100.1" y1="71.994" y2="71.994"/><ellipse cx="11.9" cy="78.9662" fill="#84BE84" rx="2.1" ry="2.1" style="stroke: #038048; stroke-width: 0.699999988079071;"/><text fill="#000000" font-family="sans-serif" font-size="7.7" lengthAdjust="spacingAndGlyphs" text-decoration="underline" textLength="160.3" x="18.2" y="81.0048">String getArticle(String word, boolean capital)</text><line style="stroke: #000000; stroke-width: 1.0;" x1="18.2" x2="178.5" y1="82.4048" y2="82.4048"/><!--class UserInterface--><rect fill="#FEFECE" filter="url(#fcsk903)" height="96.0647" style="stroke: #A80036; stroke-width: 1.0499999821186066;" width="336.7" x="207.2" y="10.85"/><ellipse cx="346.675" cy="22.05" fill="#ADD1B2" rx="7.7" ry="7.7" style="stroke: #A80036; stroke-width: 0.699999988079071;"/><path d="M346.5328,26.6 Q345.6687,26.6 345.0016,26.3102 Q344.3344,26.0203 343.8641,25.4297 Q342.9453,24.2594 342.9453,22.05 Q342.9453,19.8406 343.8641,18.6703 Q344.3344,18.0797 345.0016,17.7898 Q345.6687,17.5 346.5328,17.5 Q346.7953,17.5 347.0305,17.5273 Q347.2656,17.5547 347.4953,17.5984 Q347.9547,17.7078 348.3375,17.9047 L348.3375,19.8406 Q348.0859,19.5562 347.8781,19.4031 Q347.6703,19.25 347.4844,19.1516 Q347.2656,19.0422 347.0523,18.993 Q346.8391,18.9437 346.6203,18.9437 Q345.6906,18.9437 345.2094,19.7203 Q344.7281,20.5187 344.7281,22.05 Q344.7281,23.5922 345.2094,24.3687 Q345.6906,25.1562 346.6203,25.1562 Q347.0687,25.1562 347.4844,24.9594 Q347.6922,24.8609 347.8945,24.7187 Q348.0969,24.5766 348.3375,24.3359 L348.3375,26.2281 Q347.9328,26.4141 347.4844,26.5016 Q347.2656,26.5562 347.0305,26.5781 Q346.7953,26.6 346.5328,26.6 Z "/><text fill="#000000" font-family="sans-serif" font-size="8.4" lengthAdjust="spacingAndGlyphs" textLength="51.8" x="361.025" y="25.4194">UserInterface</text><line style="stroke: #A80036; stroke-width: 1.0499999821186066;" x1="207.9" x2="543.2" y1="33.25" y2="33.25"/><rect fill="none" height="4.2" style="stroke: #C82930; stroke-width: 0.699999988079071;" width="4.2" x="212.8" y="40.2054"/><text fill="#000000" font-family="sans-serif" font-size="7.7" lengthAdjust="spacingAndGlyphs" textLength="40.6" x="221.2" y="44.344">Game game</text><rect fill="none" height="4.2" style="stroke: #C82930; stroke-width: 0.699999988079071;" width="4.2" x="212.8" y="50.6162"/><text fill="#000000" font-family="sans-serif" font-size="7.7" lengthAdjust="spacingAndGlyphs" textLength="58.1" x="221.2" y="54.7548">Scanner scanner</text><line style="stroke: #A80036; stroke-width: 1.0499999821186066;" x1="207.9" x2="543.2" y1="59.6716" y2="59.6716"/><ellipse cx="214.9" cy="68.727" fill="#84BE84" rx="2.1" ry="2.1" style="stroke: #038048; stroke-width: 0.699999988079071;"/><text fill="#000000" font-family="sans-serif" font-size="7.7" lengthAdjust="spacingAndGlyphs" textLength="93.8" x="221.2" y="70.7656">UserInterface(Game game)</text><ellipse cx="214.9" cy="79.1378" fill="#84BE84" rx="2.1" ry="2.1" style="stroke: #038048; stroke-width: 0.699999988079071;"/><text fill="#000000" font-family="sans-serif" font-size="7.7" lengthAdjust="spacingAndGlyphs" textLength="32.9" x="221.2" y="81.1764">void run()</text><rect fill="#F24D5C" height="4.2" style="stroke: #C82930; stroke-width: 0.699999988079071;" width="4.2" x="212.8" y="87.4486"/><text fill="#000000" font-family="sans-serif" font-size="7.7" lengthAdjust="spacingAndGlyphs" textLength="175" x="221.2" y="91.5872">void printView(GameObject gameObject, int range)</text><rect fill="#F24D5C" height="4.2" style="stroke: #C82930; stroke-width: 0.699999988079071;" width="4.2" x="212.8" y="97.8593"/><text fill="#000000" font-family="sans-serif" font-size="7.7" lengthAdjust="spacingAndGlyphs" textLength="318.5" x="221.2" y="101.998">void lightRay(HashSet&lt;GameObject&gt; visibleObjects, int posX, int posY, int x, int y, int range)</text><!--class Level--><rect fill="#FEFECE" filter="url(#fcsk903)" height="54.4216" style="stroke: #A80036; stroke-width: 1.0499999821186066;" width="149.8" x="834.05" y="31.5"/><ellipse cx="896.525" cy="42.7" fill="#ADD1B2" rx="7.7" ry="7.7" style="stroke: #A80036; stroke-width: 0.699999988079071;"/><path d="M896.3828,47.25 Q895.5187,47.25 894.8515,46.9602 Q894.1844,46.6703 893.714,46.0797 Q892.7953,44.9094 892.7953,42.7 Q892.7953,40.4906 893.714,39.3203 Q894.1844,38.7297 894.8515,38.4398 Q895.5187,38.15 896.3828,38.15 Q896.6453,38.15 896.8805,38.1773 Q897.1156,38.2047 897.3453,38.2484 Q897.8047,38.3578 898.1875,38.5547 L898.1875,40.4906 Q897.9359,40.2062 897.7281,40.0531 Q897.5203,39.9 897.3344,39.8016 Q897.1156,39.6922 896.9023,39.643 Q896.689,39.5937 896.4703,39.5937 Q895.5406,39.5937 895.0594,40.3703 Q894.5781,41.1687 894.5781,42.7 Q894.5781,44.2422 895.0594,45.0187 Q895.5406,45.8062 896.4703,45.8062 Q896.9187,45.8062 897.3344,45.6094 Q897.5422,45.5109 897.7445,45.3687 Q897.9469,45.2266 898.1875,44.9859 L898.1875,46.8781 Q897.7828,47.0641 897.3344,47.1516 Q897.1156,47.2062 896.8805,47.2281 Q896.6453,47.25 896.3828,47.25 Z "/><text fill="#000000" font-family="sans-serif" font-size="8.4" lengthAdjust="spacingAndGlyphs" textLength="18.9" x="910.875" y="46.0694">Level</text><line style="stroke: #A80036; stroke-width: 1.0499999821186066;" x1="834.75" x2="983.15" y1="53.9" y2="53.9"/><ellipse cx="841.75" cy="62.9554" fill="none" rx="2.1" ry="2.1" style="stroke: #038048; stroke-width: 0.699999988079071;"/><text fill="#000000" font-family="sans-serif" font-size="7.7" lengthAdjust="spacingAndGlyphs" textLength="131.6" x="848.05" y="64.994">ArrayList&lt;GameObject&gt; gameObjects</text><line style="stroke: #A80036; stroke-width: 1.0499999821186066;" x1="834.75" x2="983.15" y1="69.9108" y2="69.9108"/><ellipse cx="841.75" cy="78.9662" fill="#84BE84" rx="2.1" ry="2.1" style="stroke: #038048; stroke-width: 0.699999988079071;"/><text fill="#000000" font-family="sans-serif" font-size="7.7" lengthAdjust="spacingAndGlyphs" textLength="23.8" x="848.05" y="81.0048">Level()</text><!--class Game--><rect fill="#FEFECE" filter="url(#fcsk903)" height="106.4755" style="stroke: #A80036; stroke-width: 1.0499999821186066;" width="241.5" x="568.4" y="5.6"/><ellipse cx="675.675" cy="16.8" fill="#ADD1B2" rx="7.7" ry="7.7" style="stroke: #A80036; stroke-width: 0.699999988079071;"/><path d="M675.5328,21.35 Q674.6687,21.35 674.0016,21.0602 Q673.3344,20.7703 672.8641,20.1797 Q671.9453,19.0094 671.9453,16.8 Q671.9453,14.5906 672.8641,13.4203 Q673.3344,12.8297 674.0016,12.5398 Q674.6687,12.25 675.5328,12.25 Q675.7953,12.25 676.0305,12.2773 Q676.2656,12.3047 676.4953,12.3484 Q676.9547,12.4578 677.3375,12.6547 L677.3375,14.5906 Q677.0859,14.3062 676.8781,14.1531 Q676.6703,14 676.4844,13.9016 Q676.2656,13.7922 676.0523,13.743 Q675.8391,13.6937 675.6203,13.6937 Q674.6906,13.6937 674.2094,14.4703 Q673.7281,15.2687 673.7281,16.8 Q673.7281,18.3422 674.2094,19.1187 Q674.6906,19.9062 675.6203,19.9062 Q676.0687,19.9062 676.4844,19.7094 Q676.6922,19.6109 676.8945,19.4687 Q677.0969,19.3266 677.3375,19.0859 L677.3375,20.9781 Q676.9328,21.1641 676.4844,21.2516 Q676.2656,21.3062 676.0305,21.3281 Q675.7953,21.35 675.5328,21.35 Z "/><text fill="#000000" font-family="sans-serif" font-size="8.4" lengthAdjust="spacingAndGlyphs" textLength="21" x="690.025" y="20.1694">Game</text><line style="stroke: #A80036; stroke-width: 1.0499999821186066;" x1="569.1" x2="809.2" y1="28" y2="28"/><ellipse cx="576.1" cy="37.0554" fill="none" rx="2.1" ry="2.1" style="stroke: #038048; stroke-width: 0.699999988079071;"/><text fill="#000000" font-family="sans-serif" font-size="7.7" lengthAdjust="spacingAndGlyphs" textLength="82.6" x="582.4" y="39.094">ArrayList&lt;Level&gt; levels</text><ellipse cx="576.1" cy="47.4662" fill="none" rx="2.1" ry="2.1" style="stroke: #038048; stroke-width: 0.699999988079071;"/><text fill="#000000" font-family="sans-serif" font-size="7.7" lengthAdjust="spacingAndGlyphs" textLength="63.7" x="582.4" y="49.5048">Level currentLevel</text><ellipse cx="576.1" cy="57.877" fill="none" rx="2.1" ry="2.1" style="stroke: #038048; stroke-width: 0.699999988079071;"/><text fill="#000000" font-family="sans-serif" font-size="7.7" lengthAdjust="spacingAndGlyphs" textLength="61.6" x="582.4" y="59.9156">String description</text><ellipse cx="576.1" cy="68.2878" fill="none" rx="2.1" ry="2.1" style="stroke: #038048; stroke-width: 0.699999988079071;"/><text fill="#000000" font-family="sans-serif" font-size="7.7" lengthAdjust="spacingAndGlyphs" textLength="45.5" x="582.4" y="70.3264">Player player</text><ellipse cx="576.1" cy="78.6986" fill="none" rx="2.1" ry="2.1" style="stroke: #038048; stroke-width: 0.699999988079071;"/><text fill="#000000" font-family="sans-serif" font-size="7.7" lengthAdjust="spacingAndGlyphs" textLength="95.9" x="582.4" y="80.7372">UserInterface userInterface</text><line style="stroke: #A80036; stroke-width: 1.0499999821186066;" x1="569.1" x2="809.2" y1="85.654" y2="85.654"/><ellipse cx="576.1" cy="94.7093" fill="#84BE84" rx="2.1" ry="2.1" style="stroke: #038048; stroke-width: 0.699999988079071;"/><text fill="#000000" font-family="sans-serif" font-size="7.7" lengthAdjust="spacingAndGlyphs" textLength="223.3" x="582.4" y="96.748">Game(Player player, ArrayList&lt;Level&gt; levels, String description)</text><ellipse cx="576.1" cy="105.1201" fill="#84BE84" rx="2.1" ry="2.1" style="stroke: #038048; stroke-width: 0.699999988079071;"/><text fill="#000000" font-family="sans-serif" font-size="7.7" lengthAdjust="spacingAndGlyphs" textLength="40.6" x="582.4" y="107.1588">void game()</text><!--class FileLoader--><rect fill="#FEFECE" filter="url(#fcsk903)" height="148.1187" style="stroke: #A80036; stroke-width: 1.0499999821186066;" width="174.3" x="6.3" y="154"/><ellipse cx="70.875" cy="165.2" fill="#ADD1B2" rx="7.7" ry="7.7" style="stroke: #A80036; stroke-width: 0.699999988079071;"/><path d="M70.7328,169.75 Q69.8687,169.75 69.2016,169.4602 Q68.5344,169.1703 68.0641,168.5797 Q67.1453,167.4094 67.1453,165.2 Q67.1453,162.9906 68.0641,161.8203 Q68.5344,161.2297 69.2016,160.9398 Q69.8687,160.65 70.7328,160.65 Q70.9953,160.65 71.2305,160.6773 Q71.4656,160.7047 71.6953,160.7484 Q72.1547,160.8578 72.5375,161.0547 L72.5375,162.9906 Q72.2859,162.7062 72.0781,162.5531 Q71.8703,162.4 71.6844,162.3016 Q71.4656,162.1922 71.2523,162.143 Q71.0391,162.0937 70.8203,162.0937 Q69.8906,162.0937 69.4094,162.8703 Q68.9281,163.6687 68.9281,165.2 Q68.9281,166.7422 69.4094,167.5187 Q69.8906,168.3062 70.8203,168.3062 Q71.2687,168.3062 71.6844,168.1094 Q71.8922,168.0109 72.0945,167.8687 Q72.2969,167.7266 72.5375,167.4859 L72.5375,169.3781 Q72.1328,169.5641 71.6844,169.6516 Q71.4656,169.7062 71.2305,169.7281 Q70.9953,169.75 70.7328,169.75 Z "/><text fill="#000000" font-family="sans-serif" font-size="8.4" lengthAdjust="spacingAndGlyphs" textLength="39.2" x="85.225" y="168.5694">FileLoader</text><line style="stroke: #A80036; stroke-width: 1.0499999821186066;" x1="7" x2="179.9" y1="176.4" y2="176.4"/><ellipse cx="14" cy="185.4554" fill="none" rx="2.1" ry="2.1" style="stroke: #038048; stroke-width: 0.699999988079071;"/><text fill="#000000" font-family="sans-serif" font-size="7.7" lengthAdjust="spacingAndGlyphs" text-decoration="underline" textLength="49.7" x="20.3" y="187.494">String PLAYER</text><line style="stroke: #000000; stroke-width: 1.0;" x1="20.3" x2="70" y1="188.894" y2="188.894"/><ellipse cx="14" cy="195.8662" fill="none" rx="2.1" ry="2.1" style="stroke: #038048; stroke-width: 0.699999988079071;"/><text fill="#000000" font-family="sans-serif" font-size="7.7" lengthAdjust="spacingAndGlyphs" text-decoration="underline" textLength="84.7" x="20.3" y="197.9048">String MELEE_WEAPONS</text><line style="stroke: #000000; stroke-width: 1.0;" x1="20.3" x2="105" y1="199.3048" y2="199.3048"/><ellipse cx="14" cy="206.277" fill="none" rx="2.1" ry="2.1" style="stroke: #038048; stroke-width: 0.699999988079071;"/><text fill="#000000" font-family="sans-serif" font-size="7.7" lengthAdjust="spacingAndGlyphs" text-decoration="underline" textLength="90.3" x="20.3" y="208.3156">String RANGED_WEAPONS</text><line style="stroke: #000000; stroke-width: 1.0;" x1="20.3" x2="110.6" y1="209.7156" y2="209.7156"/><ellipse cx="14" cy="216.6878" fill="none" rx="2.1" ry="2.1" style="stroke: #038048; stroke-width: 0.699999988079071;"/><text fill="#000000" font-family="sans-serif" font-size="7.7" lengthAdjust="spacingAndGlyphs" text-decoration="underline" textLength="70.7" x="20.3" y="218.7264">String DESCRIPTION</text><line style="stroke: #000000; stroke-width: 1.0;" x1="20.3" x2="91" y1="220.1264" y2="220.1264"/><ellipse cx="14" cy="227.0986" fill="none" rx="2.1" ry="2.1" style="stroke: #038048; stroke-width: 0.699999988079071;"/><text fill="#000000" font-family="sans-serif" font-size="7.7" lengthAdjust="spacingAndGlyphs" text-decoration="underline" textLength="49.7" x="20.3" y="229.1372">String LEVELS</text><line style="stroke: #000000; stroke-width: 1.0;" x1="20.3" x2="70" y1="230.5372" y2="230.5372"/><line style="stroke: #A80036; stroke-width: 1.0499999821186066;" x1="7" x2="179.9" y1="234.054" y2="234.054"/><ellipse cx="14" cy="243.1093" fill="#84BE84" rx="2.1" ry="2.1" style="stroke: #038048; stroke-width: 0.699999988079071;"/><text fill="#000000" font-family="sans-serif" font-size="7.7" lengthAdjust="spacingAndGlyphs" text-decoration="underline" textLength="156.1" x="20.3" y="245.148">ArrayList&lt;String[]&gt; loadCsv(String filename)</text><line style="stroke: #000000; stroke-width: 1.0;" x1="20.3" x2="176.4" y1="246.548" y2="246.548"/><ellipse cx="14" cy="253.5201" fill="#84BE84" rx="2.1" ry="2.1" style="stroke: #038048; stroke-width: 0.699999988079071;"/><text fill="#000000" font-family="sans-serif" font-size="7.7" lengthAdjust="spacingAndGlyphs" text-decoration="underline" textLength="119" x="20.3" y="255.5588">Weapon loadWeapon(String name)</text><line style="stroke: #000000; stroke-width: 1.0;" x1="20.3" x2="139.3" y1="256.9588" y2="256.9588"/><ellipse cx="14" cy="263.9309" fill="#84BE84" rx="2.1" ry="2.1" style="stroke: #038048; stroke-width: 0.699999988079071;"/><text fill="#000000" font-family="sans-serif" font-size="7.7" lengthAdjust="spacingAndGlyphs" text-decoration="underline" textLength="65.8" x="20.3" y="265.9696">Player loadPlayer()</text><line style="stroke: #000000; stroke-width: 1.0;" x1="20.3" x2="86.1" y1="267.3696" y2="267.3696"/><ellipse cx="14" cy="274.3417" fill="#84BE84" rx="2.1" ry="2.1" style="stroke: #038048; stroke-width: 0.699999988079071;"/><text fill="#000000" font-family="sans-serif" font-size="7.7" lengthAdjust="spacingAndGlyphs" text-decoration="underline" textLength="110.6" x="20.3" y="276.3804">String loadText(String filename)</text><line style="stroke: #000000; stroke-width: 1.0;" x1="20.3" x2="130.9" y1="277.7804" y2="277.7804"/><ellipse cx="14" cy="284.7525" fill="#84BE84" rx="2.1" ry="2.1" style="stroke: #038048; stroke-width: 0.699999988079071;"/><text fill="#000000" font-family="sans-serif" font-size="7.7" lengthAdjust="spacingAndGlyphs" text-decoration="underline" textLength="82.6" x="20.3" y="286.7912">String loadDescription()</text><line style="stroke: #000000; stroke-width: 1.0;" x1="20.3" x2="102.9" y1="288.1912" y2="288.1912"/><ellipse cx="14" cy="295.1633" fill="#84BE84" rx="2.1" ry="2.1" style="stroke: #038048; stroke-width: 0.699999988079071;"/><text fill="#000000" font-family="sans-serif" font-size="7.7" lengthAdjust="spacingAndGlyphs" text-decoration="underline" textLength="105" x="20.3" y="297.2019">ArrayList&lt;Level&gt; loadLevels()</text><line style="stroke: #000000; stroke-width: 1.0;" x1="20.3" x2="125.3" y1="298.6019" y2="298.6019"/><!--class Attack--><rect fill="#FEFECE" filter="url(#fcsk903)" height="64.8324" style="stroke: #A80036; stroke-width: 1.0499999821186066;" width="150.5" x="205.1" y="195.65"/><ellipse cx="265.475" cy="206.85" fill="#ADD1B2" rx="7.7" ry="7.7" style="stroke: #A80036; stroke-width: 0.699999988079071;"/><path d="M265.3328,211.4 Q264.4687,211.4 263.8016,211.1102 Q263.1344,210.8203 262.6641,210.2297 Q261.7453,209.0594 261.7453,206.85 Q261.7453,204.6406 262.6641,203.4703 Q263.1344,202.8797 263.8016,202.5898 Q264.4687,202.3 265.3328,202.3 Q265.5953,202.3 265.8305,202.3273 Q266.0656,202.3547 266.2953,202.3984 Q266.7547,202.5078 267.1375,202.7047 L267.1375,204.6406 Q266.8859,204.3562 266.6781,204.2031 Q266.4703,204.05 266.2844,203.9516 Q266.0656,203.8422 265.8523,203.793 Q265.6391,203.7437 265.4203,203.7437 Q264.4906,203.7437 264.0094,204.5203 Q263.5281,205.3187 263.5281,206.85 Q263.5281,208.3922 264.0094,209.1687 Q264.4906,209.9562 265.4203,209.9562 Q265.8687,209.9562 266.2844,209.7594 Q266.4922,209.6609 266.6945,209.5187 Q266.8969,209.3766 267.1375,209.1359 L267.1375,211.0281 Q266.7328,211.2141 266.2844,211.3016 Q266.0656,211.3562 265.8305,211.3781 Q265.5953,211.4 265.3328,211.4 Z "/><text fill="#000000" font-family="sans-serif" font-size="8.4" lengthAdjust="spacingAndGlyphs" textLength="23.8" x="279.825" y="210.2194">Attack</text><line style="stroke: #A80036; stroke-width: 1.0499999821186066;" x1="205.8" x2="354.9" y1="218.05" y2="218.05"/><ellipse cx="212.8" cy="227.1054" fill="none" rx="2.1" ry="2.1" style="stroke: #038048; stroke-width: 0.699999988079071;"/><text fill="#000000" font-family="sans-serif" font-size="7.7" lengthAdjust="spacingAndGlyphs" textLength="64.4" x="219.1" y="229.144">DamageType type;</text><ellipse cx="212.8" cy="237.5162" fill="none" rx="2.1" ry="2.1" style="stroke: #038048; stroke-width: 0.699999988079071;"/><text fill="#000000" font-family="sans-serif" font-size="7.7" lengthAdjust="spacingAndGlyphs" textLength="39.2" x="219.1" y="239.5548">int amount;</text><line style="stroke: #A80036; stroke-width: 1.0499999821186066;" x1="205.8" x2="354.9" y1="244.4716" y2="244.4716"/><ellipse cx="212.8" cy="253.527" fill="#84BE84" rx="2.1" ry="2.1" style="stroke: #038048; stroke-width: 0.699999988079071;"/><text fill="#000000" font-family="sans-serif" font-size="7.7" lengthAdjust="spacingAndGlyphs" textLength="132.3" x="219.1" y="255.5656">Attack(DamageType type, int amount)</text><!--class DamageType--><rect fill="#FEFECE" filter="url(#fcsk903)" height="75.2432" style="stroke: #A80036; stroke-width: 1.0499999821186066;" width="70.7" x="1728.3" y="685.3"/><ellipse cx="1738.8" cy="696.5" fill="#EB937F" rx="7.7" ry="7.7" style="stroke: #A80036; stroke-width: 0.699999988079071;"/><path d="M1736.2734,691.95 L1741.6765,691.95 L1741.6765,693.3937 L1737.9906,693.3937 L1737.9906,695.45 L1741.3265,695.45 L1741.3265,696.8937 L1737.9906,696.8937 L1737.9906,699.6062 L1741.6765,699.6062 L1741.6765,701.05 L1736.2734,701.05 L1736.2734,691.95 Z "/><text fill="#000000" font-family="sans-serif" font-size="8.4" lengthAdjust="spacingAndGlyphs" textLength="48.3" x="1748.6" y="699.8694">DamageType</text><line style="stroke: #A80036; stroke-width: 1.0499999821186066;" x1="1729" x2="1798.3" y1="707.7" y2="707.7"/><text fill="#000000" font-family="sans-serif" font-size="7.7" lengthAdjust="spacingAndGlyphs" textLength="36.4" x="1732.5" y="718.794">SLASHING</text><text fill="#000000" font-family="sans-serif" font-size="7.7" lengthAdjust="spacingAndGlyphs" textLength="33.6" x="1732.5" y="729.2048">PIERCING</text><text fill="#000000" font-family="sans-serif" font-size="7.7" lengthAdjust="spacingAndGlyphs" textLength="16.1" x="1732.5" y="739.6156">FIRE</text><text fill="#000000" font-family="sans-serif" font-size="7.7" lengthAdjust="spacingAndGlyphs" textLength="18.9" x="1732.5" y="750.0264">COLD</text><line style="stroke: #A80036; stroke-width: 1.0499999821186066;" x1="1729" x2="1798.3" y1="754.9432" y2="754.9432"/><path d="M908.95,95.3522 C908.95,118.5503 908.95,148.9634 908.95,174.8356 " fill="none" style="stroke: #A80036; stroke-width: 0.699999988079071;"/><polygon fill="#FFFFFF" points="908.95,86.2053,906.15,90.4053,908.95,94.6053,911.75,90.4053,908.95,86.2053" style="stroke: #A80036; stroke-width: 0.699999988079071;"/><path d="M908.95,295.645 C908.95,312.3571 908.95,329.6704 908.95,344.3574 " fill="none" style="stroke: #A80036; stroke-width: 0.699999988079071;"/><polygon fill="none" points="904.0501,295.5081,908.95,281.5081,913.8501,295.5081,904.0501,295.5081" style="stroke: #A80036; stroke-width: 0.699999988079071;"/><path d="M813.5655,419.1995 C804.627,422.7602 795.7127,426.3342 787.15,429.8 C757.8261,441.6688 725.4838,455.0724 698.0398,466.5391 " fill="none" style="stroke: #A80036; stroke-width: 0.699999988079071;"/><polygon fill="none" points="811.8202,414.6204,826.6403,414.0067,815.4376,423.7283,811.8202,414.6204" style="stroke: #A80036; stroke-width: 0.699999988079071;"/><path d="M908.95,433.5619 C908.95,444.9095 908.95,456.4934 908.95,466.4349 " fill="none" style="stroke: #A80036; stroke-width: 0.699999988079071;"/><polygon fill="none" points="904.0501,433.456,908.95,419.456,913.8501,433.4559,904.0501,433.456" style="stroke: #A80036; stroke-width: 0.699999988079071;"/><path d="M1415.4787,642.5473 C1416.7406,642.802 1417.9979,643.053 1419.25,643.3 C1549.3517,668.9663 1592.3496,634.0374 1714.65,685.3 C1719.291,687.2453 1723.8796,689.7387 1728.2786,692.5132 " fill="none" style="stroke: #A80036; stroke-width: 0.699999988079071;"/><polygon fill="#FFFFFF" points="1406.4431,640.6772,1409.9884,644.2703,1414.6687,642.3797,1411.1234,638.7866,1406.4431,640.6772" style="stroke: #A80036; stroke-width: 0.699999988079071;"/><path d="M1344.6657,525.2133 C1383.7107,541.9618 1431.3165,562.3826 1468.8511,578.4832 " fill="none" style="stroke: #A80036; stroke-width: 0.699999988079071;"/><polygon fill="none" points="1342.714,529.7079,1331.7794,519.6857,1346.5774,520.7016,1342.714,529.7079" style="stroke: #A80036; stroke-width: 0.699999988079071;"/><path d="M1271.55,540.6472 C1271.55,549.8968 1271.55,559.4908 1271.55,568.3823 " fill="none" style="stroke: #A80036; stroke-width: 0.699999988079071;"/><polygon fill="none" points="1266.65,540.5462,1271.55,526.5461,1276.45,540.5461,1266.65,540.5462" style="stroke: #A80036; stroke-width: 0.699999988079071;"/><path d="M1242.2925,655.7071 C1234.3107,669.3088 1225.9565,683.5449 1219.0099,695.3825 " fill="none" style="stroke: #A80036; stroke-width: 0.699999988079071;"/><polygon fill="none" points="1238.1551,653.0759,1249.4669,643.4814,1246.6073,658.0358,1238.1551,653.0759" style="stroke: #A80036; stroke-width: 0.699999988079071;"/><path d="M1369.9203,648.9677 C1400.9592,662.5727 1434.7189,677.3702 1463.8009,690.1175 " fill="none" style="stroke: #A80036; stroke-width: 0.699999988079071;"/><polygon fill="none" points="1367.8913,653.4284,1357.036,643.3202,1371.8255,644.4527,1367.8913,653.4284" style="stroke: #A80036; stroke-width: 0.699999988079071;"/><path d="M1000.0015,409.974 C1066.1269,430.3988 1153.7534,457.465 1211.3449,475.2539 " fill="none" style="stroke: #A80036; stroke-width: 0.699999988079071;"/><polygon fill="#FFFFFF" points="991.2295,407.2645,994.4161,411.1793,999.2554,409.7436,996.0688,405.8288,991.2295,407.2645" style="stroke: #A80036; stroke-width: 0.699999988079071;"/></g></svg>